<svg xmlns="http://www.w3.org/2000/svg" width="103.683" height="61.99" viewBox="0 0 103.683 61.99">
    <g id="beneficios-01" transform="translate(-307.585 -133.78)">
        <path id="Trazado_170" d="M411.263 193.381c-.642 1.775-1.945 2.391-3.776 2.389q-48.078-.03-96.155-.015c-2.665 0-3.738-1.085-3.741-3.758v-14.6c0-2.44 1-3.5 3.441-3.682a8.858 8.858 0 0 0 7.93-11.952 8.556 8.556 0 0 0-7.425-5.889c-.434-.061-.877-.053-1.309-.124a2.917 2.917 0 0 1-2.625-2.982q-.038-7.961 0-15.921a2.914 2.914 0 0 1 2.719-3 7.861 7.861 0 0 1 1.014-.051q48.078 0 96.155-.015c1.828 0 3.135.614 3.776 2.389v17.448a3.984 3.984 0 0 1-3.8 2.27 8.923 8.923 0 0 0 0 17.777 3.984 3.984 0 0 1 3.8 2.27zm-97.6-53.51a2.867 2.867 0 0 0-.074.429c0 3.043.013 6.086-.025 9.13 0 .672.375.761.844.888a14.949 14.949 0 0 1 .056 28.893c-.664.183-.921.436-.905 1.159.053 2.163.02 4.326.02 6.49v2.81h22.941c0-2.934-.013-5.8 0-8.668a2.973 2.973 0 0 1 2.9-3.231 3.017 3.017 0 0 1 3.043 3.2c.025 2.536 0 5.072 0 7.608v1.09h62.814c0-3.109-.03-6.147.02-9.188a1.106 1.106 0 0 0-.994-1.293 14.971 14.971 0 0 1-1.5-28.355c.817-.325 1.97-.441 2.356-1.047.416-.652.119-1.775.119-2.678v-7.233h-62.812v1.141c0 2.6.023 5.209-.023 7.811a2.957 2.957 0 1 1-5.911 0c-.036-1.486-.013-2.975-.013-4.463v-4.484z" data-name="Trazado 170"/>
        <path id="Trazado_171" fill="#fff" d="M421.666 235.5v3.946a2.945 2.945 0 0 0 2.891 3.018 2.912 2.912 0 0 0 3.043-2.967q.066-3.994 0-7.993a2.9 2.9 0 0 0-2.932-2.97 2.933 2.933 0 0 0-2.987 3.02c-.036 1.31-.013 2.626-.015 3.946z" data-name="Trazado 171" transform="translate(-85.146 -70.721)"/>
        <path id="Trazado_172" d="M421.645 235.5c0-1.316-.023-2.632 0-3.946a2.96 2.96 0 1 1 5.919-.051q.061 3.994 0 7.993a2.9 2.9 0 0 1-3.043 2.967 2.939 2.939 0 0 1-2.891-3.018v-.2q.013-1.878.015-3.745z" data-name="Trazado 172" transform="translate(-85.123 -70.72)"/>
    </g>
</svg>
