<svg xmlns="http://www.w3.org/2000/svg" width="92.911" height="98.324" viewBox="0 0 92.911 98.324">
    <g>
        <path d="M346.718 162.702c-.649-.149-1.308-.272-1.95-.452a12.683 12.683 0 0 1-7.37-5.341c-3.663-5.49-3.45-14.3.513-19.571a12.139 12.139 0 0 1 10.041-5.149q33.754-.064 67.506-.021a4.149 4.149 0 0 1 3.976 2.373 4.077 4.077 0 0 1-.513 4.674c-4.294 5.167-3.738 11.708-.405 16.551 1.906 2.771.8 5.564-2.653 6.926zm66.031-24.727c-.321-.021-.531-.046-.741-.046H348.36a6.991 6.991 0 0 0-6.647 4.225 12.155 12.155 0 0 0-1.111 6.352c.29 4.3 2.437 8.535 8.886 8.486 20.576-.151 41.153-.056 61.729-.056h1.242c-3.076-6.4-3.279-12.68.29-18.96z" data-name="Trazado 157" transform="translate(-330.917 -64.378)"/>
        <path d="M423.829 100.327c-.436 9-4.2 17.072-13.016 22.049-7.5 4.233-15.12 3.871-22.5-.6a1.3 1.3 0 0 0-1.539-.028 25.236 25.236 0 0 1-23.932.983 1.646 1.646 0 0 0-1.283-.074c-8.789 5.025-19.5 2.553-25.792-5.631-8.294-10.792-5.644-27.056 5.58-34.232a18.39 18.39 0 0 1 7.753-2.864c.7-.085.944-.513 1.239-1.026 3.81-6.67 9.186-11.544 16.687-13.522 10.531-2.788 19.409.323 26.72 8.232.382.413.675.711 1.349.569 9.32-1.937 16.9 1.093 22.854 8.307 4.043 4.879 5.78 10.667 5.88 17.837zm-35.414-23.97c.049.062-.038-.072-.146-.182a20.05 20.05 0 0 0-23.6-3.74 22.911 22.911 0 0 0-10.129 10.914 3.335 3.335 0 0 1-3.212 2.132 13.264 13.264 0 0 0-7.66 2.691c-8.173 5.944-9.389 18.727-2.514 26.336 5.131 5.674 12.519 6.572 18.858 2.25a3.371 3.371 0 0 1 3.922-.013c7.368 4.03 14.571 3.658 21.549-.983 1.827-1.216 2.735-1.216 4.489.149a16.224 16.224 0 0 0 20.266.054c9.946-7.66 10.484-23.857 1.052-32.238-4.046-3.591-8.781-5.164-14.109-4.1a20.163 20.163 0 0 0-12.626 7.75A2.882 2.882 0 1 1 379.9 84a15.251 15.251 0 0 1 2.237-2.619c2.014-1.736 4.154-3.344 6.278-5.025z" data-name="Trazado 158" transform="translate(-330.917 -64.378)"/>
        <path d="M377.345 150.22h22.554a2.871 2.871 0 0 0 .734-5.677 5.713 5.713 0 0 0-1.242-.077h-44.054c-.287 0-.577-.013-.862 0a2.884 2.884 0 1 0 .505 5.746q11.183.008 22.365.008z" data-name="Trazado 159" transform="translate(-330.917 -64.378)"/>
        <path d="M377.345 150.219h-22.364a2.884 2.884 0 1 1-.505-5.746c.285-.026.575 0 .862 0h44.054a5.715 5.715 0 0 1 1.242.077 2.871 2.871 0 0 1-.734 5.669q-10.028.018-20.058 0z" data-name="Trazado 160" transform="translate(-330.917 -64.378)"/>
    </g>
</svg>
