<svg xmlns="http://www.w3.org/2000/svg" width="23.137" height="32.041" viewBox="0 0 23.137 32.041">
    <defs>
        <style>
            .cls-1{fill:none;stroke:#000;stroke-miterlimit:10;stroke-width:2px}
        </style>
    </defs>
    <g id="candado_Mesa_de_trabajo_1" data-name="candado_Mesa de trabajo 1" transform="translate(1 1.001)">
        <path id="Trazado_186" d="M69.653 111.5l-16.314.045a2.281 2.281 0 0 0-2.379 2.355q0 6.164.009 12.326a.757.757 0 0 0 .251.542 25.194 25.194 0 0 0 2.413 1.666 15.161 15.161 0 0 0 10.3 1.918 18.068 18.068 0 0 0 7.962-3.67.677.677 0 0 0 .194-.485q.013-6.142 0-12.285a2.3 2.3 0 0 0-2.416-2.367h-.021" class="cls-1" data-name="Trazado 186" transform="translate(-50.96 -100.536)"/>
        <path id="Trazado_187" d="M112.866 151.62c.109-.508.212-1 .318-1.486.23-1.043.459-2.088.7-3.132a.36.36 0 0 0-.133-.439 2.076 2.076 0 0 1-.8-2.289 2.311 2.311 0 0 1 2.01-1.6 2.273 2.273 0 0 1 2.574 2.248 2.052 2.052 0 0 1-.851 1.623c-.125.1-.266.182-.411.283.42 1.6.838 3.174 1.265 4.792z" data-name="Trazado 187" transform="translate(-104.624 -127.563)"/>
        <path id="Trazado_188" d="M80 40.012c0-1.717.015-3.39 0-5.059a5.25 5.25 0 0 1 1.77-4.053 7.7 7.7 0 0 1 9.542-.439 5.446 5.446 0 0 1 2.3 4.652c-.028 1.587-.007 3.176 0 4.764v.133" class="cls-1" data-name="Trazado 188" transform="translate(-76.133 -29.014)"/>
    </g>
</svg>
