<svg xmlns="http://www.w3.org/2000/svg" width="107.202" height="47" viewBox="0 0 107.202 47">
    <defs>
        <style>
            .prefix__cls-1{fill:#fff}
        </style>
    </defs>
    <g id="prefix__historia_militar-04" data-name="historia militar-04" transform="translate(.003 -.016)">
        <path id="prefix__Trazado_20" d="M191.391 25.1v9.646h-.862v-4.439h-5.516v4.439h-.872V25.1h.872v4.425h5.52V25.1z" class="prefix__cls-1" data-name="Trazado 20" transform="translate(-120.136 -16.264)"/>
        <path id="prefix__Trazado_21" d="M211 27.813a.64.64 0 0 1 .629-.633.633.633 0 1 1-.629.633zm.205 1.853h.838V36.1h-.834z" class="prefix__cls-1" data-name="Trazado 21" transform="translate(-137.66 -17.614)"/>
        <path id="prefix__Trazado_22" d="M219.11 39.6l.49-.539a2.618 2.618 0 0 0 2.044.914c.834.014 1.6-.386 1.6-1.133s-.862-.991-1.738-1.248c-.98-.282-2.033-.629-2.033-1.8A2.018 2.018 0 0 1 221.72 34a3.358 3.358 0 0 1 2.086.72l-.5.58a2.148 2.148 0 0 0-1.449-.6c-.733-.024-1.557.285-1.557 1 0 .786.772 1.018 1.609 1.237 1.043.282 2.172.577 2.172 1.863 0 1.105-1.043 1.891-2.405 1.891a3.327 3.327 0 0 1-2.566-1.091z" class="prefix__cls-1" data-name="Trazado 22" transform="translate(-142.951 -22.044)"/>
        <path id="prefix__Trazado_23" d="M239.627 36.381a1.623 1.623 0 0 1-1.171.434 1.592 1.592 0 0 1-1.7-1.672v-4.23h-.89v-.667h.89V28.06h.848v2.186h1.658v.667h-1.658v4.22a.82.82 0 0 0 .876.928.862.862 0 0 0 .667-.271z" class="prefix__cls-1" data-name="Trazado 23" transform="translate(-153.885 -18.185)"/>
        <path id="prefix__Trazado_24" d="M248.42 37.324a3.1 3.1 0 1 1 6.187 0 3.1 3.1 0 1 1-6.187 0zm5.349 0a2.283 2.283 0 1 0-4.526 0 2.281 2.281 0 1 0 4.526 0z" class="prefix__cls-1" data-name="Trazado 24" transform="translate(-162.073 -22.031)"/>
        <path id="prefix__Trazado_25" d="M274.759 34.261l-.4.615a2.086 2.086 0 0 0-.876-.167 1.992 1.992 0 0 0-1.9 2.047v3.754h-.852v-6.43h.789l.038 1.043a2.409 2.409 0 0 1 1.967-1.182 2.026 2.026 0 0 1 1.234.32z" class="prefix__cls-1" data-name="Trazado 25" transform="translate(-176.628 -22.004)"/>
        <path id="prefix__Trazado_26" d="M284.8 27.813a.64.64 0 0 1 .629-.633.633.633 0 1 1-.629.633zm.205 1.853h.848V36.1h-.848z" class="prefix__cls-1" data-name="Trazado 26" transform="translate(-185.808 -17.614)"/>
        <path id="prefix__Trazado_27" d="M298.431 36.346v4.206h-.761l-.038-1.043a3.778 3.778 0 0 1-2.558 1.182 1.887 1.887 0 0 1-1.957-1.967c0-1.147.862-2.186 3.2-1.738l1.286.243v-.921c0-1.105-.786-1.582-1.79-1.582a2.086 2.086 0 0 0-1.9.991l-.594-.514a2.818 2.818 0 0 1 2.534-1.2 2.285 2.285 0 0 1 2.578 2.343zm-.838 2.381v-.837l-1.276-.271c-1.762-.348-2.353.309-2.353 1.043a1.2 1.2 0 0 0 1.29 1.248 3.33 3.33 0 0 0 2.34-1.183z" class="prefix__cls-1" data-name="Trazado 27" transform="translate(-191.232 -22.044)"/>
        <path id="prefix__Trazado_28" d="M193.59 69.5v9.649h-.862v-8.342l-3.862 5.77-3.824-5.777v8.342h-.872V69.5h.914l3.792 5.648L192.7 69.5z" class="prefix__cls-1" data-name="Trazado 28" transform="translate(-120.156 -45.051)"/>
        <path id="prefix__Trazado_29" d="M217.257 72.155a.633.633 0 1 1 .631.586.633.633 0 0 1-.631-.586zm.205 1.853h.852v6.43h-.852z" class="prefix__cls-1" data-name="Trazado 29" transform="translate(-141.741 -46.337)"/>
        <path id="prefix__Trazado_30" d="M227 77.606V69.5h.838v8.106a.81.81 0 0 0 .862.925.866.866 0 0 0 .7-.271l.473.58A1.738 1.738 0 0 1 227 77.606z" class="prefix__cls-1" data-name="Trazado 30" transform="translate(-148.098 -45.05)"/>
        <path id="prefix__Trazado_31" d="M238.277 72.155a.633.633 0 1 1 .631.586.633.633 0 0 1-.631-.586zm.205 1.853h.848v6.43h-.848z" class="prefix__cls-1" data-name="Trazado 31" transform="translate(-155.454 -46.337)"/>
        <path id="prefix__Trazado_32" d="M249.067 80.771a1.616 1.616 0 0 1-1.171.438 1.6 1.6 0 0 1-1.7-1.672v-4.22h-.886v-.667h.886v-2.19h.852v2.19h1.658v.667h-1.658v4.22a.817.817 0 0 0 .872.925.855.855 0 0 0 .671-.271z" class="prefix__cls-1" data-name="Trazado 32" transform="translate(-160.044 -46.977)"/>
        <path id="prefix__Trazado_33" d="M263.3 80.743v4.206h-.758l-.038-1.043a3.8 3.8 0 0 1-2.562 1.185 1.887 1.887 0 0 1-1.942-1.97c0-1.147.862-2.19 3.2-1.738l1.286.243V80.7c0-1.109-.786-1.585-1.787-1.585a2.086 2.086 0 0 0-1.9.994l-.599-.509a2.825 2.825 0 0 1 2.548-1.206 2.279 2.279 0 0 1 2.552 2.349zm-.824 2.378v-.834l-1.272-.271c-1.762-.348-2.353.309-2.353 1.043a1.2 1.2 0 0 0 1.272 1.251 3.359 3.359 0 0 0 2.35-1.189z" class="prefix__cls-1" data-name="Trazado 33" transform="translate(-168.319 -50.838)"/>
        <path id="prefix__Trazado_34" d="M283.125 78.667l-.4.619a2.085 2.085 0 0 0-.872-.167 1.992 1.992 0 0 0-1.9 2.044v3.757h-.853v-6.43h.782l.042 1.043a2.391 2.391 0 0 1 1.967-1.182 2.009 2.009 0 0 1 1.234.316z" class="prefix__cls-1" data-name="Trazado 34" transform="translate(-182.089 -50.81)"/>
        <path id="prefix__Rectángulo_4" d="M0 0H0.841V41.307H0z" class="prefix__cls-1" data-name="Rectángulo 4" transform="translate(53.253 1.467)"/>
        <path id="prefix__Trazado_35" d="M7.023 44.6v.046H7.4l-.033-.246-.348.2m10.567-1.754v-.067l-1.015.056a.474.474 0 0 0 0 .07l1.018-.06m-15.711-4.2c.268-.021.229-.235.309-.379.2-.365.428-.716.64-1.066.063-.105.122-.214.181-.323l-.056-.028c-.348.523-.7 1.052-1.043 1.575a.626.626 0 0 0-.035.239m16.268-20.439a1.291 1.291 0 0 0-.765.6c.153-.06.271-.095.386-.147a29.088 29.088 0 0 1 5.631-1.754 1.814 1.814 0 0 0 1.283-.737M23.554 5.1a12.78 12.78 0 0 1-1.043.835 1.056 1.056 0 0 0-.445.891 29.37 29.37 0 0 1-.629 4.673c-.115.523-.174 1.052-.264 1.631.608-.484 2.384-6.564 2.367-8.03m-1.526 7.241c.348-.428.831-.681.935-1.252a9.092 9.092 0 0 1 .337-.905q.72-2.456 1.415-4.911c.1-.351.163-.751.243-1.126l-.066-.032c-.382.284-.772.561-1.147.856a.4.4 0 0 0-.094.239c-.049.351-.056.7-.132 1.052q-.431 1.975-.914 3.922c-.156.7-.348 1.4-.577 2.157M10.506 27.022c.476-.649.945-1.291 1.418-1.929s.935-1.333 1.456-1.954c.608-.73 1.269-1.4 1.9-2.122.935-1.052 1.856-2.126 2.8-3.157a3.377 3.377 0 0 1 .92-.745 39.378 39.378 0 0 1 7.89-3.269 2.42 2.42 0 0 0 .869-.351 13.289 13.289 0 0 0 1.234-1.207c.348-.351.674-.754 1.011-1.137l-.038-.042-.584.253c.229-.305.7-.246.855-.635l-1.043.389-.031-.091c.348-.123.7-.256 1.043-.372a.864.864 0 0 0 .567-.631l-1.588.638a.491.491 0 0 1 .212-.175 11.487 11.487 0 0 1 1.192-.47.872.872 0 0 0 .608-.582l-1.95.881a.455.455 0 0 0-.049-.06c.073-.039.143-.084.216-.119.574-.256 1.147-.512 1.721-.775a1.812 1.812 0 0 0 .3-.217l-.042-.077-1.766.726a.271.271 0 0 0-.024-.056c.07-.039.136-.084.205-.116.546-.221 1.095-.431 1.634-.667a1.42 1.42 0 0 0 .539-.333c.4-.453.779-.937 1.161-1.4.094-.119.184-.246.323-.424-.163.032-.247.042-.327.067-.434.123-.872.242-1.307.372-1.39.407-2.756.786-4.116 1.235a6.135 6.135 0 0 0-2.5 1.522c-1.449 1.477-2.951 2.9-4.4 4.385-1.356 1.389-2.746 2.761-3.994 4.252-2.409 2.9-4.724 5.876-7.074 8.826-.348.431-.664.884-.994 1.326l.052.042 1.651-1.887.045.077m11.14-8.346a.655.655 0 0 1 0 .081.035.035 0 0 1-.031.035c-1.738.565-3.476 1.14-5.242 1.684a1.816 1.816 0 0 0-1.043.768l2.256-.579a.327.327 0 0 1-.191.13c-.6.2-1.213.351-1.787.6-.664.284-.945.47-1.088.8a30.075 30.075 0 0 1 4.425-1.477c-.045.056-.059.088-.076.091a29.187 29.187 0 0 0-3.886 1.291 1.571 1.571 0 0 0-.991.667l3.128-.905a.305.305 0 0 0 .024.074c-.108.035-.216.077-.327.109-.952.295-1.9.579-2.857.877a1.389 1.389 0 0 0-.306.2.384.384 0 0 0 .028.053l.5-.14a.216.216 0 0 1-.16.126 1.321 1.321 0 0 0-.883.635q-2.329 3.241-4.689 6.427l-.455.621 2.172-.533c-.5.2-1.011.351-1.519.516a2.8 2.8 0 0 0-1.39.905c.177-.063.285-.105.4-.14l5.172-1.512a.2.2 0 0 0 .1-.039c.153-.165.3-.351.445-.512a3.3 3.3 0 0 1-.591-.035 1.036 1.036 0 0 1-.222-.07.854.854 0 0 1 .115-.2.5.5 0 0 1 .184-.081 2.124 2.124 0 0 0 .622-.263 12.132 12.132 0 0 0 .855-.982l-.049-.056-2.471.919c0-.074.017-.105.045-.116.824-.305 1.651-.607 2.475-.916a.24.24 0 0 0 .115-.077c.1-.168.2-.351.3-.516l-.035-.049-2.941 1.207-.049-.081.07-.028 2.913-1.147a.4.4 0 0 0 .177-.126c.111-.154.209-.323.348-.537l-3.045 1.235-.028-.067a.657.657 0 0 1 .1-.067c.914-.379 1.821-.782 2.749-1.123a1.113 1.113 0 0 0 .622-.582l-2.607 1.126a.543.543 0 0 1 .229-.182c.758-.351 1.526-.663 2.277-1.01a2.57 2.57 0 0 0 .476-.351c-.021-.035-.042-.074-.066-.109l-2 .944-.045-.1c.647-.291 1.286-.593 1.936-.873a.908.908 0 0 0 .587-.575l-2.013.835-.031-.077.191-.091c.619-.263 1.241-.512 1.853-.789a2.855 2.855 0 0 0 .483-.351.794.794 0 0 0-.056-.091l-1.807.789-.042-.1c.584-.242 1.157-.519 1.759-.719a1.435 1.435 0 0 0 .657-.547l-2.086.968a.451.451 0 0 1-.038-.07c.118-.067.233-.14.348-.2.6-.288 1.217-.568 1.818-.863a1.947 1.947 0 0 0 .348-.256l-.031-.049a11.193 11.193 0 0 1-1.887.775.24.24 0 0 1 .125-.105c.379-.168.751-.351 1.133-.491a4.008 4.008 0 0 0 1.449-.965c.754-.772 1.571-1.477 2.35-2.228.348-.351.7-.744 1.043-1.116s.6-.638.949-1.035l-1.279.5-.035-.074a1.734 1.734 0 0 1 .205-.119 9.293 9.293 0 0 1 1.043-.424 2.992 2.992 0 0 0 1.015-.779.941.941 0 0 0-.146 0 35.95 35.95 0 0 0-6.41 1.975.27.27 0 0 0-.108.06c-.417.495-.831.993-1.286 1.54 1.943-.645 3.824-1.3 5.718-1.87m12.7-13.278a1.782 1.782 0 0 0 .236-.253c.076-.13.115-.284.188-.414.111-.189.24-.351.348-.547l-.053-.073-3.758 1.221a.607.607 0 0 1 .24-.133l3.3-1.077c.379-.123.434-.2.424-.663l-2.92.863-.024-.06a1.86 1.86 0 0 1 .177-.07l2.624-.772c.066-.021.163-.077.17-.13a2.931 2.931 0 0 0 0-.47l-2.346.782-.01-.074.08-.035c.6-.2 1.206-.407 1.814-.589.48-.14.507-.172.306-.635a.572.572 0 0 0-.052-.053l-2.179.982c0-.028-.024-.053-.035-.081l2.222-.991-.229-.446-1.307.863-.042-.067 1.3-.877-.2-.256c-.24.165-.462.312-.7.467s-.441.316-.66.474l-.042-.053c.209-.161.414-.326.629-.481s.455-.309.747-.5a6.889 6.889 0 0 0-.793-.5c-.528-.246-.546-.225-.786.295-.052.116-.1.232-.156.351s-.073.133-.108.2l-.073-.035a3.628 3.628 0 0 1 .348-.986c-.56-.056-.6-.032-.813.467-.049.116-.08.239-.125.351-.024.063-.056.123-.087.186l-.1-.046.421-.961c-.2.049-.41.1-.622.144s-.462.13-.438.456a.459.459 0 0 1-.066.189c-.3.7-.608 1.375-.914 2.063a1.031 1.031 0 0 1-.1.147l-.094-.042L31.128.929 31.062.88c-.407.151-.81.309-1.22.453-.24.084-.441.189-.49.474 0 .035-.049.063-.073.1l-.031-.018c.028-.1.056-.2.087-.295-.674.049-.7.67-.921 1.091l-.063-.028c.076-.235.153-.47.233-.73-.243.081-.438.168-.5.442a6.3 6.3 0 0 1-.24.7c-.028.07-.063.133-.09.2l-.066-.028c.111-.33.219-.66.348-1.024a2.031 2.031 0 0 0-.2.091c-.793.481-1.578.968-2.378 1.438a.723.723 0 0 0-.459.73 1.185 1.185 0 0 1-.066.375c-.25.975-.507 1.947-.751 2.926-.275 1.077-.539 2.154-.8 3.217.761-.744 1.529-1.526 2.332-2.273 1.043-.982 2.117-1.964 3.219-2.891 1.043-.877 2.152-1.684 3.233-2.519a1.107 1.107 0 0 1 .216-.1l.08.109a34.983 34.983 0 0 0-5.491 5.08c2.291-1.21 4.818-1.814 7.174-2.849a4.415 4.415 0 0 1-.556.323c-1.043.428-2.12.842-3.18 1.256-.567.225-1.133.442-1.7.663a.131.131 0 0 0 .136.039l4.682-1.256a.347.347 0 0 0 .177-.119c.219-.3.431-.6.64-.912.024-.035 0-.1 0-.151m-15.809 12.29a.086.086 0 0 1 .038-.06c.664-.326 1.31-.7 1.992-.965a37.157 37.157 0 0 1 5.214-1.7c.716-.172 1.1-.723 1.609-1.137a.221.221 0 0 0-.132 0 36.938 36.938 0 0 0-6.583 2.592c-.591.305-1.171.635-1.78.888a1.426 1.426 0 0 0-.577.428l.236-.039c-.247.137-.525.235-.653.575l.278-.105a18.86 18.86 0 0 1 1.78-.761c1.251-.4 2.524-.737 3.789-1.095a5.048 5.048 0 0 0 1.161-.312 8.2 8.2 0 0 0 1.161-.975c-.82.2-1.62.421-2.409.674a23.906 23.906 0 0 0-4.341 1.649c-.247.137-.518.232-.775.351m-9.025 2.125c2.166-2.228 3.973-4.764 5.975-7.128 1.686-1.989 3.389-3.957 5.263-5.771a29.678 29.678 0 0 1 7.675-5.5 14.47 14.47 0 0 1 3.73-1.34 3.018 3.018 0 0 1 3.653 2.733 3.1 3.1 0 0 1-.361 1.961 16.533 16.533 0 0 1-2.086 3.02c-.567.642-1.154 1.266-1.738 1.9a.834.834 0 0 0-.108.14 16.881 16.881 0 0 1-3.306 3.887c-.7.631-1.39 1.238-2.11 1.859-.056.053-.07.151-.111.225s-.035.063-.059.07a2.575 2.575 0 0 0-1.074.81c-1.314 1.28-2.6 2.592-3.91 3.859-.653.635-1.366 1.207-2.023 1.835a27.193 27.193 0 0 0-4.123 5.123c-.275.431-.612.824-.921 1.235 0 0-.035.025-.035.035.024.442-.393.351-.6.509a.193.193 0 0 0-.042.1h.348a1.071 1.071 0 0 1 .153.028c0 .053 0 .119-.049.151a4.221 4.221 0 0 0-.323.288c-.125.154-.219.351-.348.505a.429.429 0 0 1-.191.172c-1.043.284-2.086.551-3.107.835-.831.232-1.658.481-2.485.723a1.136 1.136 0 0 0-.7.607c.365-.119.7-.239 1.043-.351.806-.228 1.613-.453 2.433-.649a2.225 2.225 0 0 1 .73 0 16.84 16.84 0 0 0-4.557 1.789l1.116-.263.024.123a1.554 1.554 0 0 1-.163.1c-.469.2-.945.389-1.415.6a.657.657 0 0 0-.257.189C4.7 35.234 3.947 36.255 3.2 37.28c-.268.351-.5.765-.758 1.14a3.093 3.093 0 0 1-.3.316c.229.049.441.088.647.144.438.119.521.424.2.744-.132.126-.3.228-.431.351-.222.207-.445.41-.65.635s-.122.351.111.393a3.29 3.29 0 0 0 .671.053c.379 0 .758-.035 1.133-.046 1.21-.039 2.433-.14 3.629-.081.8.039 1.6 0 2.395.035s1.613.049 2.433.039c.521 0 1.043-.1 1.561-.1s1.1.07 1.655.109c.209 0 .417.042.626.046a21.975 21.975 0 0 1 3.591.26 2.027 2.027 0 0 1 .761.225 1.285 1.285 0 0 1 .379.582c.076.2-.063.372-.229.495a2.863 2.863 0 0 1-1.3.421 22.94 22.94 0 0 1-3.292.2 14.682 14.682 0 0 0-3.865.467c-.348.105-.671.246-1 .351v.077h.254a20.618 20.618 0 0 1 4.331.382 1.274 1.274 0 0 1 1.015.779c.063.165.076.326-.07.41a1.864 1.864 0 0 1-.932.389 8.3 8.3 0 0 0-1.168.144.3.3 0 0 0-.184.14.287.287 0 0 0 .111.168c.132.067.285.091.417.158.076.039.125.13.184.2-.08.042-.17.13-.233.116a7.248 7.248 0 0 1-.866-.256.494.494 0 0 1-.348-.46.487.487 0 0 1 .348-.46c.452-.221.9-.438 1.366-.719a9.491 9.491 0 0 0-1.119-.2c-.7-.042-1.411-.049-2.117-.049-1.39 0-2.781.028-4.171.042H6.873c-.1 0-.2-.095-.3-.144a1.329 1.329 0 0 1 .17-.291 2.6 2.6 0 0 1 1.3-.614c1.1-.232 2.2-.446 3.313-.614 1.519-.228 3.045-.4 4.567-.607.448-.06.9-.137 1.342-.214a1.824 1.824 0 0 0 .316-.119v-.091c-.32-.067-.64-.158-.963-.193-.452-.049-.907-.053-1.359-.077-.136 0-.24-.028-.264-.207 0-.053-.139-.123-.216-.123-1.144-.021-2.287-.053-3.431-.042-1.582 0-3.163.056-4.745.084-1.168.021-2.339 0-3.507.063-.636.025-1.265.179-1.9.2a4.46 4.46 0 0 1-1.1-.168c-.052 0-.115-.161-.1-.239a1.436 1.436 0 0 1 .925-1.165c.5-.225.984-.488 1.47-.74a.831.831 0 0 0 .2-.147c.146-.147.132-.295-.052-.389a3.443 3.443 0 0 0-.348-.105 1.334 1.334 0 0 1-.24-.165c-.174.07-.219 0-.212-.274a.978.978 0 0 1 .174-.554c.782-1.2 1.557-2.392 2.318-3.589a1.923 1.923 0 0 0 .282-.593q.375-1.736.7-3.48c.348-1.719.671-3.438 1.008-5.157a3.022 3.022 0 0 1 .118-.351c0-.028.031-.074.021-.084-.2-.214 0-.3.118-.431.466-.523.921-1.052 1.39-1.579a1 1 0 0 1 .209-.144.871.871 0 0 1 .143.225 4.539 4.539 0 0 0 .163.7c.17-.9.348-1.807.511-2.708.024-.126.038-.256.2-.232s.156.165.129.3c-.223 1.08-.435 2.168-.643 3.259-.083.431-.136.866-.216 1.3 0 .074-.09.137-.136.2a.745.745 0 0 1-.083-.232c-.042-.7-.07-1.4-.1-2.129-.48.523-.949 1.028-1.39 1.508a1.83 1.83 0 0 1 .017.456Q6.011 28.46 5.34 31.7c-.108.526-.229 1.052-.348 1.561a3.721 3.721 0 0 0 .9-1.877 23.554 23.554 0 0 1 .553-2.61c.08-.389.111-.786.174-1.228.049 1.4-.393 2.7-.466 4.055a4.011 4.011 0 0 0 .7-1.172 27.778 27.778 0 0 0 .723-4.4 5.411 5.411 0 0 1 .07-.582 21.774 21.774 0 0 1-.446 4.732c.348-.5.636-.979 1-1.4a2.142 2.142 0 0 0 .455-1.4.629.629 0 0 1 .049-.246c.16.246.073.512.063.821l.156-.2c.348-.477.7-.965 1.1-1.424.209-.249.156-.54.222-.814.205-.838.431-1.67.622-2.512.247-1.087.469-2.178.66-3.08a36.4 36.4 0 0 1-1.021 5.776c.212-.27.553-.519.6-.814.056-.375.2-.7.282-1.073.195-.881.421-1.754.671-2.628-.209 1.087-.414 2.178-.633 3.343.275-.351.5-.649.733-.944l4.8-5.964.017-.018a2.534 2.534 0 0 0 .949-1.9c0-.032 0-.063.066-.088l-.115.884.073.042a4.278 4.278 0 0 0 .473-.744 4.128 4.128 0 0 0 .163-.888h.07c-.038.288-.08.575-.122.873.368-.214.556-.463.469-1.754a2.278 2.278 0 0 1 .035 1.252.516.516 0 0 0 .309-.456c.035-.523.1-1.052.149-1.568a.186.186 0 0 1 .076-.13c-.052.579-.1 1.161-.16 1.8.257-.242.494-.4.514-.754.035-.7.115-1.4.17-2.1a1.77 1.77 0 0 1 0-.27 12.511 12.511 0 0 1-.1 2.519.847.847 0 0 0 .424-.74c.059-.751.174-1.494.25-2.245.024-.256 0-.512.028-.768a11.26 11.26 0 0 1-.205 3.273 1.531 1.531 0 0 0 .6-.933c.146-1.1.4-2.182.574-3.276.132-.852.195-1.719.289-2.578l.08-.7c-.167.151-.3.26-.421.379-.7.7-1.415 1.382-2.11 2.084a.645.645 0 0 0-.163.393 15.312 15.312 0 0 1-.574 3.2.539.539 0 0 1-.056.109h-.061c.195-1.091.386-2.182.58-3.269l-.07-.035c-.348.368-.7.737-1.018 1.112-.038.042-.028.126-.038.193-.177 1.172-.348 2.343-.532 3.508a2.529 2.529 0 0 1-.195.5l-.059-.021q.348-1.979.7-3.961l-.059-.032a4.194 4.194 0 0 1-.448.481 2.174 2.174 0 0 0-.7 1.638c-.129 1.27-.313 2.536-.476 3.8a1.611 1.611 0 0 1-.076.274H16.2q.313-2.4.629-4.792l-.076-.035c-.25.288-.5.572-.747.863a.134.134 0 0 0 0 .1 5.836 5.836 0 0 1-.156 2.389c-.2 1.052-.4 2.08-.608 3.115a.888.888 0 0 1-.146.351 56.505 56.505 0 0 0 .855-5.774c-.428.424-.939.772-.876 1.484l-.083-.039c.021-.133.042-.27.073-.456a.634.634 0 0 0-.327.537 8.2 8.2 0 0 1-.063.87h-.08c0-.291.031-.586.052-.93a.8.8 0 0 0-.348.575c0 .351-.056.7-.09 1.052a1.139 1.139 0 0 1-.045.21H14.1c.035-.421.073-.842.115-1.33-.191.228-.348.351-.372.638-.035.575-.118 1.147-.188 1.719a1.093 1.093 0 0 1-.052.235h-.073c.08-.66.156-1.319.236-2.017a.8.8 0 0 0-.32.561c-.059.66-.163 1.312-.254 1.968a.168.168 0 0 1-.115.137l.289-2.189a.961.961 0 0 0-.389.551c-.063.624-.174 1.245-.292 1.863a7.941 7.941 0 0 1 .17-1.9c-.115.2-.348.274-.386.582a9.394 9.394 0 0 1-.348 1.526 4.727 4.727 0 0 1 .222-1.477L9.588 19.9c-.024-.028-.049-.053-.07-.081" class="prefix__cls-1" data-name="Trazado 35"/>
        <path id="prefix__Trazado_36" d="M64.589 66.849c.8-.042 1.766-.073 2.729-.153a10.077 10.077 0 0 0 1.5-.271c.282-.066.546-.212.567-.56 0-.229-.229-.455-.626-.521-.8-.143-1.6-.285-2.409-.348a15.764 15.764 0 0 0-4.446.205 2.086 2.086 0 0 0-1.224.587c-.233.261-.2.469.108.626a2.007 2.007 0 0 0 .372.143 15.875 15.875 0 0 0 3.445.292m5.746 1.39c0-.275-.146-.143-.261-.08l-.257-.1c-.017.177-.031.3-.052.48l.2-.219c-.191.4-.271.845-.7 1.123a2.732 2.732 0 0 0-.567.73c-.143.195-.278.393-.417.591l-.083-.073.81-1.168a.66.66 0 0 0-.584.257c-.236.348-.5.65-.747.977l-.056-.038.782-1.071-.038-.035c-.17.191-.348.379-.514.577s-.348.414-.5.619l-.059-.042c.129-.174.25-.348.386-.518s.271-.32.4-.483a1.353 1.353 0 0 0 .1-.181 8.589 8.589 0 0 0 .848-.313c.4-.2.455-.594.473-.987.021-.57.031-1.14.045-1.714v-.268l.1-.031a.852.852 0 0 1 .1.236c.024.41.042.82.059 1.22.431.049.848.07 1.258.143a1.293 1.293 0 0 1 1.043.7 6.024 6.024 0 0 1 .348.838q.594 2.009 1.161 4.029c.153.549.292 1.1.421 1.658a6.258 6.258 0 0 1 .08.667h.222a.511.511 0 0 1-.052.174c-.184.226-.031.441.056.7l.525-.782a.831.831 0 0 1-.031.33c-.1.188-.25.348-.372.535a1 1 0 0 0-.153.372c.2-.191.4-.386.6-.57a.1.1 0 1 1 .129.111c-.316.348-.643.7-.956 1.043a2.583 2.583 0 0 0-.226.368c-.129-.059-.264-.073-.285.2 0 .073-.16.125-.236.2l-3.17 3.212a1.506 1.506 0 0 1-.181.146l-.08-.063a1.931 1.931 0 0 1 .184-.278c.56-.591 1.116-1.189 1.689-1.766.386-.386.8-.74 1.182-1.147l-.653.452a.813.813 0 0 0-.539.306c-.216.236-.5.407-.73.636-.514.521-1 1.064-1.509 1.592a1.515 1.515 0 0 1-.261.181l-.083-.1 1.971-2.054a3.445 3.445 0 0 0-1.5.723c-.487.5-.984.991-1.477 1.484a.233.233 0 0 1-.163.063 7.777 7.777 0 0 1 1.5-1.682 2.433 2.433 0 0 0-1.234.455c-.289.285-.56.58-.834.872-.1.108-.188.226-.282.348l-.1-.1a3.873 3.873 0 0 1 1.071-1.224 1.189 1.189 0 0 0-1.032.355c-.188.195-.372.389-.563.58-.063.063-.132.118-.25.219a.752.752 0 0 1 .285-.549c.115-.139.278-.285.428-.438-.761-.076-1.043.619-1.557.925.045-.348.379-.514.587-.81-.4.031-.779-.021-1.043.348a.233.233 0 0 1-.07.073c-.115.073-.233.139-.348.209.08-.118.153-.24.236-.348a1.554 1.554 0 0 1 .149-.143 1.217 1.217 0 0 0-1.161.316.7.7 0 0 1-.146.136.6.6 0 0 1-.163.049.238.238 0 0 1 .042-.17 3.8 3.8 0 0 1 .313-.3c-.3 0-.57-.083-.806.132-.031.031-.1.021-.153.031v-.149c-.6-.087-1.224-.143-1.828-.278a16.785 16.785 0 0 1-4.362-1.477 5.561 5.561 0 0 1-1.06-.9.41.41 0 0 1-.122-.567 3.723 3.723 0 0 0 .167-.859 42.086 42.086 0 0 1 2.28-6.6 5.18 5.18 0 0 0 .25-.859 1.248 1.248 0 0 1 .793-.914 6.88 6.88 0 0 1 1.043-.275 2.811 2.811 0 0 1 .348-.031v-1.739a2.509 2.509 0 0 1-.038-.528c.07-.348.348-.5.647-.653a6.194 6.194 0 0 1 2.485-.563 18.808 18.808 0 0 1 4.147.149 10.183 10.183 0 0 1 1.3.264 1.39 1.39 0 0 1 .587.4.525.525 0 0 1-.049.824 2.124 2.124 0 0 1-.7.4 1.331 1.331 0 0 0-.633.365c-.438.532-.925 1.022-1.39 1.526l-.417.441-.063-.059 1.974-2.12-.049-.063a2.051 2.051 0 0 0-.243.174c-.393.389-.782.786-1.171 1.182a.441.441 0 0 1-.233.132l1.39-1.39-.053-.078a2.555 2.555 0 0 0-.539.282c-.289.254-.546.546-.813.824a1.986 1.986 0 0 0-.136.163l-.066-.066 1.064-1.1c-.535-.042-.7.445-1.043.653.08-.1.153-.209.24-.3s.191-.184.292-.278c-.275-.056-.275-.056-.431.115a1.516 1.516 0 0 1-.386.323l.344-.375L61.718 67v-.07c-.038.073-.076.149-.122.219a.323.323 0 0 1-.181.139c.07-.111.143-.222.222-.348l-1.043-.348a12.94 12.94 0 0 0 0 1.557 7.017 7.017 0 0 0 0 .855c.038.216.195.452.41.469.052 0 .122-.059.17-.1.233-.216.462-.438.7-.65l-.73.786c.2.094.348.167.5-.049l-.083.2a20.694 20.694 0 0 0 3.128.434v.063c-.372 0-.747.031-1.116 0-.845-.08-1.686-.184-2.524-.3a1.088 1.088 0 0 1-.441-.2.468.468 0 0 1-.278-.553 2.562 2.562 0 0 0 0-.591 3.271 3.271 0 0 0-1.335.348.744.744 0 0 0-.17 1.3 3.58 3.58 0 0 0 1.6.82 9.623 9.623 0 0 0 1.807.3c1.071.073 2.148.083 3.226.108.275 0 .553-.028.827-.042v.073c-.768.042-1.533.108-2.3.129a15.786 15.786 0 0 1-3.288-.205l-.5-.087h-.021c-.181-.083-.348-.174-.542-.243a.415.415 0 0 0-.163.08.7.7 0 0 1-.236.146c.083-.087.17-.177.226-.24l-1.171-.939c-.3.82-.619 1.689-.928 2.562s-.647 1.738-.9 2.61-.414 1.776-.615 2.666a1.084 1.084 0 0 0 0 .174l.153-.347h.049a1.31 1.31 0 0 0-.031.414 1.192 1.192 0 0 0 .229.348l.066-.031v-.377l.07-.035c0 .431.118.768.56.862.028-.16.056-.323.08-.483h.049a1.311 1.311 0 0 0 .066.532c.09.143.3.212.487.348 0-.184.021-.309.028-.438l.08-.049c-.125.619.348.615.7.737.024-.1.045-.205.07-.3h.063a.648.648 0 0 0 .049.32.761.761 0 0 0 .323.156c.108.042.219.07.348.108a2.85 2.85 0 0 1 .045-.386 1.451 1.451 0 0 0 .226.459 1.391 1.391 0 0 0 .5.153 1.425 1.425 0 0 1 .028-.348h.059a.49.49 0 0 1 .056.17.269.269 0 0 0 .254.306c.174.035.323.076.507.122v-.424l.07-.021a.716.716 0 0 1 .087.264c0 .2.076.264.261.278a3.526 3.526 0 0 1 .414.076c.024-.136.042-.264.063-.389h.059a.657.657 0 0 1 .021.181c-.031.209.07.271.254.275a3.138 3.138 0 0 1 .452.024v-.459h.058c.038.149.08.3.125.483h.56l.111-.49h.083c0 .156-.021.309-.035.487h.7a2.625 2.625 0 0 0-.024-.438l.066-.017c.045.143.094.288.146.459h.247c.313 0 .348-.035.3-.348 0-.049.056-.1.083-.153l.073.042c0 .129-.024.261-.035.393.549.136.7 0 .58-.459l.066-.028.177.469.58-.07c-.028-.163-.056-.309-.08-.452.143.028.143.028.212.4l.49-.031c-.035-.17-.059-.306-.087-.441l.07-.024a1.986 1.986 0 0 1 .1.233c.063.209.146.243.348.136a2.742 2.742 0 0 1 .285-.111c-.028-.125-.063-.306-.1-.487l.073-.031c.07.181.136.348.216.563.16-.031.348-.07.514-.1s.247-.118.163-.3a.348.348 0 0 1-.021-.25c.073.143.146.289.226.452l.716-.191-.226-.438c.268-.021.25.236.348.393l.549-.17c-.038-.2-.076-.386-.122-.6.236.118.132.375.275.574.16-.094.41-.149.48-.3s-.056-.368-.094-.556l.062-.018.222.594c.146-.076.348-.115.4-.226s0-.289 0-.438h.066l.115.393c.382-.108.393-.122.528-.678l.115.348c.375-.07.535-.289.375-.7l.1.024.115.348c.417-.177.448-.254.289-.726l.066-.031.191.389c.32-.129.348-.195.278-.56l.063-.063.111.226.188-.243-.275-.063.063-.713h-.073l-.577.747c.2-.389.379-.72.542-1.064a.576.576 0 0 0-.024-.285l-.16.181c.216-.261.122-.539.042-.9l-1.849 3.073-.056-.024c.024-.052.042-.1.07-.153.587-.991 1.185-1.974 1.738-2.975.09-.16.035-.4.045-.608l-.094-.017-2.014 3.225-.073-.045c.1-.156.195-.316.3-.473.539-.852 1.064-1.714 1.62-2.551a.768.768 0 0 0 .021-.824L71.3 77.319l-.083-.052c.136-.205.271-.41.4-.619.507-.841 1-1.693 1.526-2.517a.845.845 0 0 0 .028-.914l-1.8 3.274-.056-.028c.035-.076.063-.156.1-.229.528-.966 1.043-1.933 1.589-2.892a.542.542 0 0 0 .056-.584 17.776 17.776 0 0 0-1.894 3.424l-.063-.028a2.478 2.478 0 0 1 .09-.271 14.682 14.682 0 0 1 1.564-2.783.9.9 0 0 0 .111-1.071c-.1-.174-.08-.417-.17-.643-.156.282-.309.567-.469.841a3.266 3.266 0 0 1-.247.33c.174-.348.327-.7.532-1.022a.7.7 0 0 0 .021-.775c-.66 1.164-1.314 2.312-1.964 3.476a.485.485 0 0 0-.059-.031c.184-.348.348-.7.556-1.043q.647-1.151 1.3-2.3a.466.466 0 0 0 0-.6c-.087-.1-.045-.309-.063-.473h-.066c-.226.389-.452.779-.7 1.164l-.052-.028c.212-.368.428-.73.629-1.1a1.654 1.654 0 0 0 .094-.348l-.08-.024-1.33 2.259-.059-.031.758-1.39-.035-.024c-.316.469-.64.938-.959 1.39l-.066-.045.793-1.126-.042-.035-1.081.5-.021-.038c.16-.087.323-.167.476-.264a5.453 5.453 0 0 0 .838-.553 2 2 0 0 0 .462-.671.7.7 0 0 0-.261-.9l-1.147 1.738-.066-.035c.045-.073.083-.149.129-.219q.483-.733.973-1.47c.083-.122.073-.195-.049-.222l-1.422 2.162-.076-.052q.7-1.043 1.39-2.117a.892.892 0 0 1-.07-.09c-.073.038-.167.059-.209.118-.476.7-.945 1.39-1.415 2.086a1.065 1.065 0 0 0-.045.111l-.045-.094c.521-.74 1.043-1.484 1.571-2.245l-.236-.07c-.535.834-1.064 1.651-1.589 2.471l-.094-.063q.782-1.185 1.561-2.371l-.056-.083-.372.136z" class="prefix__cls-1" data-name="Trazado 36" transform="translate(-36.186 -41.751)"/>
        <path id="prefix__Trazado_37" d="M101.4 102.669a66.434 66.434 0 0 1 4.519-5.339l.073.049a1.954 1.954 0 0 1-.149.226c-.7.8-1.39 1.6-2.086 2.412-.577.7-1.126 1.39-1.693 2.065a5.806 5.806 0 0 1-.452.473.873.873 0 0 1-.219.115" class="prefix__cls-1" data-name="Trazado 37" transform="translate(-66.15 -63.136)"/>
        <path id="prefix__Trazado_38" d="M105.74 102.958a1.677 1.677 0 0 1 .143-.24c.834-1.071 1.679-2.134 2.513-3.208.243-.309.466-.633.7-.949a.584.584 0 0 1 .167-.111.575.575 0 0 1-.024.212q-.608.8-1.23 1.592c-.674.866-1.356 1.738-2.033 2.593a1.969 1.969 0 0 1-.174.167l-.066-.056" class="prefix__cls-1" data-name="Trazado 38" transform="translate(-68.981 -63.869)"/>
        <path id="prefix__Trazado_39" d="M111.987 98.93a24.919 24.919 0 0 1-3.007 3.9c.939-1.39 1.974-2.645 3.007-3.9" class="prefix__cls-1" data-name="Trazado 39" transform="translate(-71.101 -64.186)"/>
        <path id="prefix__Trazado_40" d="M111.42 103.957l2.58-3.247a.622.622 0 0 1-.056.209 21.551 21.551 0 0 1-2.384 3.028.547.547 0 0 1-.1.056l-.038-.045" class="prefix__cls-1" data-name="Trazado 40" transform="translate(-72.693 -65.346)"/>
        <path id="prefix__Trazado_41" d="M85.87 92.428q1.547-2.367 3.1-4.738l.059.038-3.076 4.752-.083-.052" class="prefix__cls-1" data-name="Trazado 41" transform="translate(-56.024 -56.886)"/>
        <path id="prefix__Trazado_42" d="M60.628 24.86l-.5 4.449h-.108l.532-4.446h.076" class="prefix__cls-1" data-name="Trazado 42" transform="translate(-39.16 -16.12)"/>
        <path id="prefix__Trazado_43" d="M88.19 99.569q1.185-1.974 2.364-3.959l.066.042q-1.171 1.981-2.35 3.966l-.08-.049" class="prefix__cls-1" data-name="Trazado 43" transform="translate(-57.538 -62.031)"/>
        <path id="prefix__Trazado_44" d="M89.544 86l-2.7 4.119a35.294 35.294 0 0 1 2.7-4.119" class="prefix__cls-1" data-name="Trazado 44" transform="translate(-56.657 -55.794)"/>
        <path id="prefix__Trazado_45" d="M86.38 88.539a38.72 38.72 0 0 1 2.649-3.879l-2.6 3.914c-.021 0-.035-.024-.052-.035" class="prefix__cls-1" data-name="Trazado 45" transform="translate(-56.357 -54.926)"/>
        <path id="prefix__Trazado_46" d="M87.07 94.824q1.23-1.9 2.457-3.824l.059.038-2.433 3.824-.076-.049" class="prefix__cls-1" data-name="Trazado 46" transform="translate(-56.807 -59.04)"/>
        <path id="prefix__Trazado_47" d="M89.65 100.111q1.074-1.762 2.155-3.521a.411.411 0 0 0 .066.038l-2.145 3.528-.076-.045" class="prefix__cls-1" data-name="Trazado 47" transform="translate(-58.49 -62.67)"/>
        <path id="prefix__Trazado_48" d="M92.221 99.05c-.6.977-1.217 1.953-1.811 2.913a13.678 13.678 0 0 1 1.811-2.913" class="prefix__cls-1" data-name="Trazado 48" transform="translate(-58.986 -64.271)"/>
        <path id="prefix__Trazado_49" d="M88.693 84.43a16.193 16.193 0 0 1-1.943 2.941q.977-1.47 1.943-2.941" class="prefix__cls-1" data-name="Trazado 49" transform="translate(-56.598 -54.783)"/>
        <path id="prefix__Trazado_50" d="M64.813 86.341l-2.451 2.805-.063-.056q1.23-1.39 2.464-2.781l.049.042" class="prefix__cls-1" data-name="Trazado 50" transform="translate(-40.647 -56.004)"/>
        <path id="prefix__Trazado_51" d="M101.546 87.359l-1.6 2.781-.083-.049 1.627-2.781.059.035" class="prefix__cls-1" data-name="Trazado 51" transform="translate(-65.151 -56.653)"/>
        <path id="prefix__Trazado_52" d="M88.653 95.8c-.1.181-.188.348-.3.542-.5.8-1.008 1.6-1.512 2.4a.146.146 0 0 1-.122.07c.049-.087.1-.174.153-.261.518-.824 1.043-1.648 1.554-2.468a2.5 2.5 0 0 1 .233-.282z" class="prefix__cls-1" data-name="Trazado 52" transform="translate(-56.579 -62.162)"/>
        <path id="prefix__Trazado_53" d="M95.359 74.87c-.153.282-.3.574-.466.845-.309.518-.657 1.022-1 1.529l-.059-.028a2.2 2.2 0 0 1 .125-.275q.664-1 1.328-2.006a.216.216 0 0 1 .076-.059" class="prefix__cls-1" data-name="Trazado 53" transform="translate(-61.217 -48.582)"/>
        <path id="prefix__Trazado_54" d="M99 84.38l1.55-2.68.063.035q-.765 1.345-1.536 2.683L99 84.38" class="prefix__cls-1" data-name="Trazado 54" transform="translate(-64.59 -53.013)"/>
        <path id="prefix__Trazado_55" d="M87.55 100.786l1.589-2.506.07.045-1.592 2.506-.066-.045" class="prefix__cls-1" data-name="Trazado 55" transform="translate(-57.12 -63.775)"/>
        <path id="prefix__Trazado_56" d="M100.513 87.36c-.094.2-.174.407-.278.6-.327.608-.657 1.213-1.043 1.8a.32.32 0 0 1 0-.1c.417-.754.831-1.505 1.251-2.259a.222.222 0 0 1 .052-.045" class="prefix__cls-1" data-name="Trazado 56" transform="translate(-64.713 -56.688)"/>
        <path id="prefix__Trazado_57" d="M114.81 106.565l.893-1.095c.083.226-.49 1-.893 1.095" class="prefix__cls-1" data-name="Trazado 57" transform="translate(-74.905 -68.452)"/>
        <path id="prefix__Trazado_58" d="M89.54 73.659L88.07 75.2a.449.449 0 0 0-.07-.066l1.484-1.534.045.049" class="prefix__cls-1" data-name="Trazado 58" transform="translate(-57.414 -47.762)"/>
        <path id="prefix__Trazado_59" d="M66.5 83.617l-1.31 1.738-.07-.052c.452-.567.907-1.13 1.359-1.693h.021" class="prefix__cls-1" data-name="Trazado 59" transform="translate(-42.487 -54.259)"/>
        <path id="prefix__Trazado_60" d="M91.85 102.66l1.116-1.78.052.031L91.9 102.7l-.056-.035" class="prefix__cls-1" data-name="Trazado 60" transform="translate(-59.919 -65.468)"/>
        <path id="prefix__Trazado_61" d="M89.111 73.2l-1.359 1.467-.052-.052 1.363-1.463a.645.645 0 0 1 .049.049" class="prefix__cls-1" data-name="Trazado 61" transform="translate(-57.218 -47.471)"/>
        <path id="prefix__Trazado_62" d="M103.88 100.056l1.043-1.686.056.035-1.043 1.682-.066-.031" class="prefix__cls-1" data-name="Trazado 62" transform="translate(-67.768 -63.839)"/>
        <path id="prefix__Trazado_63" d="M66.331 85.645c-.4.5-.789.994-1.185 1.488l-.056-.042 1.185-1.491.056.045" class="prefix__cls-1" data-name="Trazado 63" transform="translate(-42.467 -55.552)"/>
        <path id="prefix__Trazado_64" d="M71.28 74.466l.987-1.206.056.042-.98 1.21-.063-.045" class="prefix__cls-1" data-name="Trazado 64" transform="translate(-46.506 -47.543)"/>
        <path id="prefix__Trazado_65" d="M93.14 103.4c.275-.434.553-.866.827-1.3l.056.035c-.271.435-.546.866-.82 1.3l-.063-.038" class="prefix__cls-1" data-name="Trazado 65" transform="translate(-60.767 -66.263)"/>
        <path id="prefix__Trazado_66" d="M100.031 83.042l-.779 1.449-.063-.031.79-1.46.052.028" class="prefix__cls-1" data-name="Trazado 66" transform="translate(-64.714 -53.864)"/>
        <path id="prefix__Trazado_67" d="M87.28 85.868c.285-.421.567-.841.852-1.258l.052.031-.848 1.272-.056-.045" class="prefix__cls-1" data-name="Trazado 67" transform="translate(-56.944 -54.91)"/>
        <path id="prefix__Trazado_68" d="M86.48 85.388c.247-.348.5-.716.744-1.078l.063.042-.744 1.084-.063-.049" class="prefix__cls-1" data-name="Trazado 68" transform="translate(-56.422 -54.717)"/>
        <path id="prefix__Trazado_69" d="M89.14 79.655l-.824.939-.066-.059.838-.925.052.045" class="prefix__cls-1" data-name="Trazado 69" transform="translate(-57.577 -51.667)"/>
        <path id="prefix__Trazado_70" d="M89.6 84.612l-.8 1.175-.049-.024.782-1.192.056.042" class="prefix__cls-1" data-name="Trazado 70" transform="translate(-57.903 -54.885)"/>
        <path id="prefix__Trazado_71" d="M87.677 80.225l.7-.7h.017l-.72.7" class="prefix__cls-1" data-name="Trazado 71" transform="translate(-57.199 -51.616)"/>
        <path id="prefix__Trazado_72" d="M85.59 84.963l.587-.8.063.045-.587.806-.063-.049" class="prefix__cls-1" data-name="Trazado 72" transform="translate(-55.842 -54.621)"/>
        <path id="prefix__Trazado_73" d="M92.28 93.853l.6-1.043a.633.633 0 0 0 .08.052l-.7.97" class="prefix__cls-1" data-name="Trazado 73" transform="translate(-60.2 -60.235)"/>
        <path id="prefix__Trazado_74" d="M99.65 78.3l.587-.9.056.035-.587.9-.056-.035" class="prefix__cls-1" data-name="Trazado 74" transform="translate(-65.014 -50.232)"/>
        <path id="prefix__Trazado_75" d="M86.89 89.3l.525-.772.056.035-.525.775-.056-.038" class="prefix__cls-1" data-name="Trazado 75" transform="translate(-56.69 -57.458)"/>
        <path id="prefix__Trazado_76" d="M66.283 83.772l-.58.674-.053-.046.587-.671a.5.5 0 0 0 .045.042" class="prefix__cls-1" data-name="Trazado 76" transform="translate(-42.833 -54.343)"/>
        <path id="prefix__Trazado_77" d="M75.926 67.619a12.656 12.656 0 0 0 3.163-.306 1.043 1.043 0 0 0 .348-.153c.156-.108.136-.254-.038-.323a1.314 1.314 0 0 0-.41-.115c-1.043-.094-2.054-.2-3.087-.254a14.946 14.946 0 0 0-3.406.257 2.562 2.562 0 0 0-.7.264.309.309 0 0 0-.122.271c.021.07.156.139.25.156.278.049.56.076.838.1a6.564 6.564 0 0 0 2.051.115 5.7 5.7 0 0 1 1.1 0" class="prefix__cls-1" data-name="Trazado 77" transform="translate(-46.765 -43.128)"/>
        <path id="prefix__Trazado_78" d="M89.083 15.157l3.445-1.3a.622.622 0 0 0 .028.073l-3.441 1.32-.035-.094" class="prefix__cls-1" data-name="Trazado 78" transform="translate(-58.119 -9.032)"/>
        <path id="prefix__Trazado_79" d="M50.588 53.248c-.841.4-1.679.793-2.52 1.178a.529.529 0 0 1-.2 0 .841.841 0 0 1 .087-.188.271.271 0 0 1 .125-.076l2.5-.952v.021" class="prefix__cls-1" data-name="Trazado 79" transform="translate(-31.233 -34.529)"/>
        <path id="prefix__Trazado_80" d="M61.751 38.317c-.793.271-1.561.49-2.294.786-1.39.56-2.781 1.14-4.14 1.766a11.873 11.873 0 0 0-1.429.921.813.813 0 0 1-.209.066.657.657 0 0 1 .073-.216 4.171 4.171 0 0 1 1.53-1.04 57.353 57.353 0 0 1 6.375-2.3.4.4 0 0 1 .094.017" class="prefix__cls-1" data-name="Trazado 80" transform="translate(-35.023 -24.844)"/>
        <path id="prefix__Trazado_81" d="M61.48 36.14a3.556 3.556 0 0 1 .549-.306c1.47-.528 2.944-1.043 4.418-1.568a.16.16 0 0 1 .125 0c-1.717.563-3.427 1.144-5.092 1.863" class="prefix__cls-1" data-name="Trazado 81" transform="translate(-40.112 -22.222)"/>
        <path id="prefix__Trazado_82" d="M71.066 30.993a41.875 41.875 0 0 0-4.126 1.074 2.809 2.809 0 0 1 .494-.24q1.272-.348 2.548-.66c.348-.09.7-.16 1.067-.236v.063" class="prefix__cls-1" data-name="Trazado 82" transform="translate(-43.674 -20.067)"/>
        <path id="prefix__Trazado_83" d="M67.987 33.19a25.226 25.226 0 0 0-4.043 1.39.484.484 0 0 0-.035-.056 4.564 4.564 0 0 1 .726-.358c.9-.285 1.811-.542 2.718-.806.212-.063.434-.108.65-.16" class="prefix__cls-1" data-name="Trazado 83" transform="translate(-41.697 -21.533)"/>
        <path id="prefix__Trazado_84" d="M70.513 30.389l-1.1.448-.021-.049c.348-.156.733-.309 1.1-.459a.3.3 0 0 1 .024.059" class="prefix__cls-1" data-name="Trazado 84" transform="translate(-45.273 -19.679)"/>
        <path id="prefix__Trazado_85" d="M75.945 67.593a5.693 5.693 0 0 0-1.1 0 6.553 6.553 0 0 1-2.051-.115c-.278-.024-.56-.052-.838-.1a.315.315 0 0 1-.25-.156.309.309 0 0 1 .122-.271 2.562 2.562 0 0 1 .7-.264 14.946 14.946 0 0 1 3.406-.257c1.043.056 2.058.16 3.087.254a1.314 1.314 0 0 1 .41.115c.174.07.195.216.038.323a1.043 1.043 0 0 1-.348.153 12.656 12.656 0 0 1-3.156.306" class="prefix__cls-1" data-name="Trazado 85" transform="translate(-46.784 -43.102)"/>
    </g>
</svg>
