<svg xmlns="http://www.w3.org/2000/svg" width="59.988" height="32.559" viewBox="0 0 59.988 32.559">
    <defs>
        <style>
            .prefix__cls-1{opacity:.5}.prefix__cls-2{fill:#fff}
        </style>
    </defs>
    <g id="prefix__icono_bajar-04" class="prefix__cls-1" data-name="icono bajar-04" transform="translate(-9.422 -11.238)">
        <g id="prefix__Grupo_3" class="prefix__cls-1" data-name="Grupo 3">
            <path id="prefix__Trazado_1" d="M65.06 12l-24 24-3.42 3.42h3.64l-24-24L13.83 12c-2.35-2.35-6 1.3-3.65 3.64l24 24 3.41 3.42a2.63 2.63 0 0 0 3.65 0l24-24 3.41-3.42c2.35-2.34-1.29-6-3.64-3.64z" class="prefix__cls-2" data-name="Trazado 1"/>
        </g>
        <g id="prefix__Grupo_3-2" data-name="Grupo 3-2" opacity="0.2">
            <path id="prefix__Trazado_1-2" d="M65.06 12l-24 24-3.42 3.42h3.64l-24-24L13.83 12c-2.35-2.35-6 1.3-3.65 3.64l24 24 3.41 3.42a2.63 2.63 0 0 0 3.65 0l24-24 3.41-3.42c2.35-2.34-1.29-6-3.64-3.64z" class="prefix__cls-2" data-name="Trazado 1-2"/>
        </g>
    </g>
</svg>
