<svg xmlns="http://www.w3.org/2000/svg" width="80.003" height="80.23" viewBox="0 0 80.003 80.23">
    <defs>
        <style>
            .cls-1{fill:#1a1a1a}
        </style>
    </defs>
    <g id="icono_menú-09" data-name="icono menú-09" transform="translate(-4.34 -4)">
        <path id="Trazado_155" d="M63.05 4c1.76.37 3.56.61 5.27 1.13a23.13 23.13 0 0 1-2.82 44.74 22.67 22.67 0 0 1-14-1.74c-.32-.14-.6-.37-1 0-2.87 2.89-5.77 5.77-8.69 8.68l4.47 4.43L36.51 71l-4.31-4.31-3.37 3.39 4.42 4.32-9.83 9.83-4.5-4.53-4.12 4.19L4.34 73.44a5.34 5.34 0 0 0 .81-.53l34.79-34.76a1 1 0 0 0 .25-1.4A23.11 23.11 0 0 1 55.6 4.7c1.26-.32 2.56-.47 3.84-.7zm-12.9 38a18.48 18.48 0 1 0 1-30.27A18 18 0 0 0 43.5 22c-1.65 5.86-.48 11.26 3 16.32L11.28 73.58l3.64 3.65L19 73.12l4.39 4.42 3.14-3.15L22.14 70 32.2 60l4.33 4.35 3.21-3.18-4.44-4.32z" class="cls-1" data-name="Trazado 155"/>
        <path id="Trazado_156" d="M58 22.69a7.66 7.66 0 1 1 2.247 5.43A7.7 7.7 0 0 1 58 22.69zm4.71 0a22172.124 22172.124 0 1 1 .01-.01z" class="cls-1" data-name="Trazado 156"/>
    </g>
</svg>
