<svg xmlns="http://www.w3.org/2000/svg" width="78.308" height="98.324" viewBox="0 0 78.308 98.324">
    <path d="M37.828 98.324a26.3 26.3 0 0 1-4.377-2.009 8.515 8.515 0 0 1-3.715-6.927c-.064-1.4 0-2.8 0-4.295H0V66.101c.757 0 1.485-.033 2.209 0a10.478 10.478 0 0 0 10.97-10.957c-.118-7.391-.062-14.785-.018-22.176.046-7.483 3.268-13.258 9.7-17.076a35.759 35.759 0 0 1 5.862-2.27 8.978 8.978 0 0 1 1.011-.257c0-1.539-.064-3.035 0-4.531a9.456 9.456 0 0 1 18.872 0c.074 1.5 0 3 0 4.533.68.159 1.283.29 1.852.434a19.069 19.069 0 0 1 14.623 17.632c.257 7.64.087 15.293.108 22.94 0 .736 0 1.473.059 2.206a10.262 10.262 0 0 0 9.828 9.492c1.052.033 2.1 0 3.235 0V85.06H48.646v2.886c0 5.6-2.565 8.889-8 10.262-.054 0-.095.077-.144.118zM15.252 65.999H63.12a15.079 15.079 0 0 1-3.489-7.909 62.156 62.156 0 0 1-.19-6.414c-.021-6.237 0-12.476 0-18.712A13.587 13.587 0 0 0 45.42 18.992c-4.223 0-8.446-.021-12.668 0a14.778 14.778 0 0 0-3.135.321A13.538 13.538 0 0 0 18.936 32.86c-.028 7.391 0 14.78-.015 22.168a23.6 23.6 0 0 1-.2 3.156 16.221 16.221 0 0 1-3.484 7.817zM5.76 79.26h66.825v-7.335H5.752zm37.073-66.063c.026-.3.059-.513.059-.736 0-1.116.036-2.237-.044-3.335a3.658 3.658 0 0 0-3.374-3.335 3.549 3.549 0 0 0-3.848 2.742 33.34 33.34 0 0 0-.046 4.677zM35.506 85.14c0 1.485-.09 2.894.023 4.289a3.684 3.684 0 0 0 7.242.231 38.374 38.374 0 0 0 .038-4.52z"/>
</svg>
