<svg xmlns="http://www.w3.org/2000/svg" width="83.297" height="78.492" viewBox="0 0 83.297 78.492">
    <g>
        <path d="M390.9 65.711v73.863c-.611 1.712-1.85 2.311-3.647 2.309q-38.028-.047-76.053-.024a5.963 5.963 0 0 1-1.373-.092c-1.477-.348-2.223-1.492-2.223-3.333V67c0-2.563 1.019-3.592 3.6-3.592q38.028 0 76.053-.022c1.79.002 3.02.603 3.643 2.325zm-77.432 21.007v49.255h71.558V86.708zm71.568-17.436h-71.564v11.49h71.564z" data-name="Trazado 161" transform="translate(-307.6 -63.39)"/>
        <path d="M349.177 103.298h24.392c.353 0 .707.01 1.057-.018a2.877 2.877 0 0 0 2.59-3.138 2.831 2.831 0 0 0-.094-.505c-.408-1.439-1.492-2.146-3.321-2.148h-49.106a6.518 6.518 0 0 0-.89.061 2.879 2.879 0 0 0-.3 5.66 5.866 5.866 0 0 0 1.294.082h24.38zm.075 5.83h-24.391c-.326 0-.652 0-.976.02a2.908 2.908 0 0 0-2.592 2.506 2.853 2.853 0 0 0 1.875 3.073 5.3 5.3 0 0 0 1.6.2q24.476.014 48.949 0a7.03 7.03 0 0 0 1.133-.077 2.853 2.853 0 0 0 2.266-3.582 2.911 2.911 0 0 0-3.148-2.142h-24.723zm-.087 17.421h24.476a9.719 9.719 0 0 0 .974-.02 2.91 2.91 0 0 0 2.6-2.5 2.832 2.832 0 0 0-1.809-3.056 5.129 5.129 0 0 0-1.675-.238q-24.476-.018-48.951 0a6.572 6.572 0 0 0-1.131.082 2.853 2.853 0 0 0-2.333 3.293 2.947 2.947 0 0 0 .092.375 2.914 2.914 0 0 0 3.124 2.066z" data-name="Trazado 162" transform="translate(-307.6 -63.39)"/>
        <path d="M326.124 75.031a3.759 3.759 0 1 0 1.1-2.66 3.757 3.757 0 0 0-1.1 2.66zm13.477 3.765a3.731 3.731 0 1 0-3.818-3.723 3.784 3.784 0 0 0 3.817 3.723zm-19.49 0a3.759 3.759 0 0 0 3.871-3.645v-.022a3.777 3.777 0 1 0-7.551-.185 3.778 3.778 0 0 0 3.68 3.839z" data-name="Trazado 163" transform="translate(-307.6 -63.39)"/>
        <path d="M349.177 103.298h-24.39a5.862 5.862 0 0 1-1.294-.081 2.879 2.879 0 0 1 .3-5.66 6.517 6.517 0 0 1 .89-.061h49.104c1.834 0 2.912.709 3.321 2.148a2.877 2.877 0 0 1-1.985 3.547 2.723 2.723 0 0 1-.5.094c-.35.029-.7.018-1.057.018z" data-name="Trazado 164" transform="translate(-307.6 -63.39)"/>
        <path d="M349.248 109.128h24.724a2.911 2.911 0 0 1 3.148 2.14 2.853 2.853 0 0 1-1.97 3.521 2.445 2.445 0 0 1-.3.067 7.034 7.034 0 0 1-1.133.077h-48.949a5.3 5.3 0 0 1-1.6-.2 2.853 2.853 0 0 1-1.877-3.077 2.908 2.908 0 0 1 2.6-2.5c.324-.029.65-.02.976-.02z" data-name="Trazado 165" transform="translate(-307.6 -63.39)"/>
        <path d="M349.165 126.553h-24.638a2.918 2.918 0 0 1-3.124-2.066 2.853 2.853 0 0 1 1.866-3.576 2.961 2.961 0 0 1 .375-.092 6.571 6.571 0 0 1 1.131-.082h48.951a5.128 5.128 0 0 1 1.675.238 2.832 2.832 0 0 1 1.809 3.038 2.91 2.91 0 0 1-2.6 2.512 9.71 9.71 0 0 1-.974.02z" data-name="Trazado 166" transform="translate(-307.6 -63.39)"/>
        <path d="M326.124 75.03a3.757 3.757 0 1 1 3.768 3.753 3.727 3.727 0 0 1-3.755-3.7z" data-name="Trazado 167" transform="translate(-307.6 -63.39)"/>
        <path d="M339.601 78.797a3.731 3.731 0 1 1 3.739-3.806 3.79 3.79 0 0 1-3.739 3.806z" data-name="Trazado 168" transform="translate(-307.6 -63.39)"/>
        <path d="M320.111 78.782a3.78 3.78 0 0 1-3.686-3.845 3.777 3.777 0 1 1 7.551.185 3.759 3.759 0 0 1-3.859 3.667z" data-name="Trazado 169" transform="translate(-307.6 -63.39)"/>
    </g>
</svg>
