<svg xmlns="http://www.w3.org/2000/svg" width="133.897" height="40.677" viewBox="0 0 133.897 40.677">
    <defs>
        <style>
            .cls-1{fill:#fff}
        </style>
    </defs>
    <g id="soldados_del_aire-01" data-name="soldados del aire-01" transform="translate(-34.17 -44.34)">
        <path id="Trazado_104" d="M195.45 73.074l.6-.625a2.977 2.977 0 0 0 2.841 1.614c1.2 0 2.231-.5 2.231-1.726 0-1.287-1.186-1.74-2.414-2.19-1.287-.487-2.637-.974-2.637-2.488 0-1.636 1.339-2.414 2.811-2.414a3.823 3.823 0 0 1 2.942 1.227l-.591.588a2.8 2.8 0 0 0-2.365-1.075c-1.012 0-1.949.487-1.949 1.61 0 1.064 1.038 1.488 2.176 1.9 1.361.524 2.875 1.075 2.875 2.8s-1.376 2.573-3.1 2.573a3.9 3.9 0 0 1-3.418-1.8z" class="cls-1" data-name="Trazado 104" transform="translate(-101.302 -13.13)"/>
        <path id="Trazado_105" d="M216.16 76.91a3.018 3.018 0 1 1 3 3.25 3.048 3.048 0 0 1-3-3.25zm5.206 0a2.221 2.221 0 1 0-2.2 2.514 2.283 2.283 0 0 0 2.2-2.514z" class="cls-1" data-name="Trazado 105" transform="translate(-114.311 -18.416)"/>
        <path id="Trazado_106" d="M236.521 73.467V65.59h.811v7.877a.788.788 0 0 0 .848.9.844.844 0 0 0 .662-.26l.454.562a1.673 1.673 0 0 1-2.785-1.2z" class="cls-1" data-name="Trazado 106" transform="translate(-127.093 -13.347)"/>
        <path id="Trazado_107" d="M251.218 65.59v9.379h-.744l-.052-1.116a2.652 2.652 0 0 1-2.272 1.25 3.273 3.273 0 0 1 0-6.5 2.674 2.674 0 0 1 2.261 1.212V65.59zm-.8 6.846v-1.182a2.225 2.225 0 0 0-2.149-1.926 2.536 2.536 0 0 0 0 5.028 2.218 2.218 0 0 0 2.149-1.92z" class="cls-1" data-name="Trazado 107" transform="translate(-132.589 -13.347)"/>
        <path id="Trazado_108" d="M270.649 75.947v4.091h-.744l-.037-1.026a3.678 3.678 0 0 1-2.488 1.149 1.833 1.833 0 0 1-1.893-1.911c0-1.116.837-2.127 3.113-1.677l1.25.238v-.9c0-1.075-.762-1.536-1.737-1.536a2.016 2.016 0 0 0-1.859.959l-.576-.5a2.753 2.753 0 0 1 2.477-1.175 2.222 2.222 0 0 1 2.494 2.288zm-.8 2.3v-.8l-1.238-.264c-1.711-.35-2.287.3-2.287 1.026a1.16 1.16 0 0 0 1.238 1.212 3.213 3.213 0 0 0 2.287-1.172z" class="cls-1" data-name="Trazado 108" transform="translate(-145.293 -18.416)"/>
        <path id="Trazado_109" d="M289.348 65.59v9.379h-.748l-.052-1.116a2.652 2.652 0 0 1-2.276 1.25 3.273 3.273 0 0 1 0-6.5 2.681 2.681 0 0 1 2.265 1.212V65.59zm-.8 6.846v-1.182a2.231 2.231 0 0 0-2.15-1.926 2.536 2.536 0 0 0 0 5.028 2.224 2.224 0 0 0 2.15-1.92z" class="cls-1" data-name="Trazado 109" transform="translate(-156.539 -13.347)"/>
        <path id="Trazado_110" d="M303.51 76.91a3.018 3.018 0 1 1 3 3.25 3.048 3.048 0 0 1-3-3.25zm5.206 0a2.221 2.221 0 1 0-2.2 2.514 2.283 2.283 0 0 0 2.2-2.514z" class="cls-1" data-name="Trazado 110" transform="translate(-169.176 -18.416)"/>
        <path id="Trazado_111" d="M322.21 79.087l.472-.524a2.553 2.553 0 0 0 1.99.889c.814.015 1.551-.372 1.551-1.116s-.837-.963-1.7-1.216c-.952-.275-1.978-.61-1.978-1.748a1.976 1.976 0 0 1 2.2-1.752 3.269 3.269 0 0 1 2.027.7l-.487.565a2.083 2.083 0 0 0-1.4-.588c-.714-.026-1.514.271-1.514.974 0 .762.744.989 1.566 1.2 1 .275 2.112.562 2.112 1.811 0 1.075-1.012 1.837-2.339 1.837a3.146 3.146 0 0 1-2.5-1.032z" class="cls-1" data-name="Trazado 111" transform="translate(-180.922 -18.391)"/>
        <path id="Trazado_112" d="M352.728 65.59v9.379h-.744l-.048-1.116a2.659 2.659 0 0 1-2.276 1.25 3.273 3.273 0 0 1 0-6.5 2.685 2.685 0 0 1 2.265 1.212V65.59zm-.8 6.846v-1.182a2.232 2.232 0 0 0-2.153-1.926 2.536 2.536 0 0 0 0 5.028 2.234 2.234 0 0 0 2.153-1.92z" class="cls-1" data-name="Trazado 112" transform="translate(-196.349 -13.347)"/>
        <path id="Trazado_113" d="M372.677 77.154h-5.027a2.158 2.158 0 0 0 2.19 2.231 2.019 2.019 0 0 0 1.859-1.06l.576.413a2.685 2.685 0 0 1-2.451 1.372 3.263 3.263 0 0 1 0-6.5 2.89 2.89 0 0 1 2.864 3.2 2.435 2.435 0 0 1-.011.344zm-5-.651h4.266a2.11 2.11 0 0 0-2.1-2.161 2.186 2.186 0 0 0-2.164 2.161z" class="cls-1" data-name="Trazado 113" transform="translate(-208.961 -18.385)"/>
        <path id="Trazado_114" d="M386.73 73.467V65.59h.811v7.877a.788.788 0 0 0 .837.9.844.844 0 0 0 .662-.26l.476.562a1.673 1.673 0 0 1-2.785-1.2z" class="cls-1" data-name="Trazado 114" transform="translate(-221.448 -13.347)"/>
        <path id="Trazado_115" d="M201.363 113.277h-5.039l-.788 2.038h-.926l3.763-9.375h.937l3.763 9.375h-.922zm-.29-.744l-2.231-5.727-2.231 5.727z" class="cls-1" data-name="Trazado 115" transform="translate(-100.775 -38.692)"/>
        <path id="Trazado_116" d="M220.9 108.464a.625.625 0 0 1 .614-.614.614.614 0 1 1 0 1.227.625.625 0 0 1-.614-.614zm.2 1.8h.826v6.251h-.826z" class="cls-1" data-name="Trazado 116" transform="translate(-117.288 -39.892)"/>
        <path id="Trazado_117" d="M233.569 114.3l-.372.6a1.971 1.971 0 0 0-.852-.164 1.938 1.938 0 0 0-1.859 1.99v3.648h-.826v-6.251h.766l.037 1.026a2.328 2.328 0 0 1 1.912-1.149 1.967 1.967 0 0 1 1.194.3z" class="cls-1" data-name="Trazado 117" transform="translate(-122.79 -43.752)"/>
        <path id="Trazado_118" d="M246.756 117.5h-5.016a2.16 2.16 0 0 0 2.19 2.231 2.016 2.016 0 0 0 1.859-1.064l.576.413a2.681 2.681 0 0 1-2.451 1.376 3.263 3.263 0 0 1 0-6.5 2.886 2.886 0 0 1 2.864 3.2c-.011.121-.011.237-.022.344zm-5-.651h4.262a2.111 2.111 0 0 0-2.1-2.164 2.184 2.184 0 0 0-2.164 2.168z" class="cls-1" data-name="Trazado 118" transform="translate(-129.875 -43.729)"/>
        <path id="Trazado_119" d="M100.06 49.86l.372.082.576 1.049a.6.6 0 0 0 .145.149.915.915 0 0 0 .242.078l.677.067.327-.253-.186-.041 1.432.309.022.037-.826-.175.126.227.777.086v-.033l.056.041a4.5 4.5 0 0 1 .848.182 5 5 0 0 1 .562.35s.8.3.941.372l1.38.61.372.082v.03l-.372-.086a7.237 7.237 0 0 1-1.034-.082h-.13v-.033h-.212l-.019.041h-.056v-.06s-.8-.141-1.116-.223-.941-.216-.941-.216v.05l-.227-.048-.041.045-.141-.033a3.347 3.347 0 0 1-.513 0l-.465-.067-1.432.331.744.156.03.03v.041l-1.525-.331.03-.041.212.045.491-.576-.744-.223-.863.223-.275-.1.372-.372-.26-.089v-.045l-.178-.052s-.056-.1-.03-.16a.778.778 0 0 1 .063-.119h.093s0-.089.052-.089h.112l.045-.052.186.033z" class="cls-1" data-name="Trazado 119" transform="translate(-40.847 -3.467)"/>
        <path id="Trazado_120" d="M89.4 44.34l.335.071.517.919a.525.525 0 0 0 .126.126.885.885 0 0 0 .212.071l.6.056.29-.223-.171-.03 1.261.271.022.033-.744-.156.112.2.681.078v-.03l.048.033a4.027 4.027 0 0 1 .744.164 4.343 4.343 0 0 1 .495.3s.7.268.829.331l1.212.536.335.071v.026l-.338-.074a6.248 6.248 0 0 1-.911-.074l-.022.022-.093-.022v-.026h-.186v.037h-.045v-.037s-.7-.123-.982-.193-.829-.19-.829-.19v.041l-.2-.041-.033.037-.126-.03a2.853 2.853 0 0 1-.45 0l-.409-.063-1.261.294.647.138.026.026v.037l-1.343-.294.026-.033.186.037.431-.506-.669-.2-.744.2-.245-.086.32-.335-.231-.082v-.037l-.164-.045a.227.227 0 0 1-.022-.145.658.658 0 0 1 .056-.1h.078s0-.115.041-.115h.1l.037-.045.164.03z" class="cls-1" data-name="Trazado 120" transform="translate(-34.207)"/>
        <path id="Trazado_121" d="M89.47 53.42l.524.093.837 1.4a.881.881 0 0 0 .2.193 1.439 1.439 0 0 0 .335.1l.922.052.435-.372-.253-.041.019-.022 1.967.35.03.048-1.116-.2.182.3 1.064.078v-.045l.074.052a6.456 6.456 0 0 1 1.164.2 7.022 7.022 0 0 1 .777.446s1.1.372 1.3.461 1.9.744 1.9.744l.521.093v.05l-.528-.093a9.473 9.473 0 0 1-1.409-.063l-.033.03-.145-.022-.019-.041h-.283l-.026.052h-.074V57.2s-1.09-.152-1.528-.245-1.29-.245-1.29-.245v.067l-.309-.056-.052.06-.2-.033a4.746 4.746 0 0 1-.7 0l-.636-.074-1.92.526 1.008.179.045.037v.056l-2.084-.372.037-.056.286.048.64-.807-1.064-.249-1.16.35-.372-.119.472-.536-.372-.115v-.056l-.253-.063a.327.327 0 0 1-.048-.216.952.952 0 0 1 .082-.164h.126s.022-.123.063-.123h.156l.056-.071.253.037z" class="cls-1" data-name="Trazado 121" transform="translate(-34.021 -5.703)"/>
        <path id="Trazado_122" d="M71.928 58.057a26.523 26.523 0 0 1 1.093 7.33 18.639 18.639 0 0 1-18.594 18.594c-10.268 0-17.984-8-17.984-18.271 0-10.167 7.557-18.754 17.687-18.91h-.078a19.881 19.881 0 1 0 19.88 19.881c0-2.068 0-4.191-.907-5.95z" class="cls-1" data-name="Trazado 122" transform="translate(0 -1.545)"/>
        <path id="Trazado_123" d="M36.037 68.7c1.8-8.847 10.108-15.653 18.665-15.787h-.082a21.029 21.029 0 0 0-19.55 14.5z" class="cls-1" data-name="Trazado 123" transform="translate(-.565 -5.383)"/>
        <path id="Trazado_124" d="M37.986 76.573c.346-11.023 8.274-16.5 16.846-16.631h-.078c-9.829-.543-16.776 5.433-18.4 15.489z" class="cls-1" data-name="Trazado 124" transform="translate(-1.369 -9.779)"/>
        <path id="Trazado_125" d="M56.662 84.488h19.014l-9.505 15.057zM53.46 83l12.711 20.145L78.882 83z" class="cls-1" data-name="Trazado 125" transform="translate(-12.116 -24.283)"/>
        <path id="Trazado_126" d="M79.3 101.646l5.046-8H74.25z" class="cls-1" data-name="Trazado 126" transform="translate(-25.175 -30.972)"/>
        <path id="Rectángulo_39" d="M0 0H0.818V39.732H0z" class="cls-1" data-name="Rectángulo 39" transform="translate(84.78 45.18)"/>
    </g>
</svg>
