<svg xmlns="http://www.w3.org/2000/svg" width="139.596" height="44.663" viewBox="0 0 139.596 44.663">
    <defs>
        <style>
            .prefix__cls-1{fill:#fff}
        </style>
    </defs>
    <g id="prefix__soldados_de_tierra-01" data-name="soldados de tierra-01" transform="translate(-111.56 -31.47)">
        <path id="prefix__Rectángulo_6" d="M0 0H0.85V41.305H0z" class="prefix__cls-1" data-name="Rectángulo 6" transform="translate(169.057 34.787)"/>
        <path id="prefix__Trazado_86" d="M244.52 63.205l.627-.647a3.089 3.089 0 0 0 2.948 1.679c1.249 0 2.316-.506 2.316-1.8s-1.234-1.81-2.528-2.276-2.746-1.011-2.746-2.589c0-1.7 1.391-2.528 2.928-2.528a3.98 3.98 0 0 1 3.034 1.274l-.6.612a2.908 2.908 0 0 0-2.453-1.118c-1.057 0-2.023.506-2.023 1.674s1.077 1.517 2.26 1.977c1.416.546 2.989 1.118 2.989 2.913s-1.431 2.68-3.221 2.68a4.046 4.046 0 0 1-3.531-1.851z" class="prefix__cls-1" data-name="Trazado 86" transform="translate(-65.723 -11.654)"/>
        <path id="prefix__Trazado_87" d="M260.36 64.9a3.135 3.135 0 1 1 3.12 3.383 3.167 3.167 0 0 1-3.12-3.383zm5.406 0a2.309 2.309 0 1 0-2.286 2.614 2.368 2.368 0 0 0 2.286-2.614z" class="prefix__cls-1" data-name="Trazado 87" transform="translate(-73.553 -14.854)"/>
        <path id="prefix__Trazado_88" d="M275.93 63.542V55.35h.845v8.192a.819.819 0 0 0 .87.936.865.865 0 0 0 .688-.278l.506.587a1.74 1.74 0 0 1-2.9-1.244z" class="prefix__cls-1" data-name="Trazado 88" transform="translate(-81.249 -11.804)"/>
        <path id="prefix__Trazado_89" d="M288.8 55.35v9.75h-.764l-.056-1.168a2.776 2.776 0 0 1-2.367 1.3 3.4 3.4 0 0 1 0-6.761 2.791 2.791 0 0 1 2.357 1.254V55.35zm-.829 7.11v-1.219a2.321 2.321 0 0 0-2.235-2.023 2.634 2.634 0 0 0 0 5.224 2.321 2.321 0 0 0 2.239-1.982z" class="prefix__cls-1" data-name="Trazado 89" transform="translate(-84.556 -11.804)"/>
        <path id="prefix__Trazado_90" d="M303.43 63.908v4.253h-.769l-.035-1.067a3.828 3.828 0 0 1-2.574 1.2 1.911 1.911 0 0 1-1.992-1.967c0-1.158.875-2.21 3.241-1.74l1.279.222v-.936c0-1.118-.794-1.6-1.81-1.6a2.1 2.1 0 0 0-1.922 1.011l-.6-.506a2.852 2.852 0 0 1 2.574-1.224 2.279 2.279 0 0 1 2.608 2.354zm-.849 2.417v-.855l-1.29-.273c-1.78-.364-2.377.308-2.377 1.067a1.209 1.209 0 0 0 1.285 1.259 3.464 3.464 0 0 0 2.381-1.198z" class="prefix__cls-1" data-name="Trazado 90" transform="translate(-92.188 -14.865)"/>
        <path id="prefix__Trazado_91" d="M317.95 55.35v9.75h-.769l-.051-1.168a2.776 2.776 0 0 1-2.367 1.3 3.4 3.4 0 0 1 0-6.761 2.792 2.792 0 0 1 2.357 1.254V55.35zm-.829 7.11v-1.219a2.321 2.321 0 0 0-2.24-2.023 2.635 2.635 0 0 0 0 5.224 2.321 2.321 0 0 0 2.239-1.982z" class="prefix__cls-1" data-name="Trazado 91" transform="translate(-98.96 -11.804)"/>
        <path id="prefix__Trazado_92" d="M327.14 64.9a3.135 3.135 0 1 1 3.12 3.383 3.167 3.167 0 0 1-3.12-3.383zm5.406 0a2.309 2.309 0 1 0-2.286 2.614 2.368 2.368 0 0 0 2.286-2.614z" class="prefix__cls-1" data-name="Trazado 92" transform="translate(-106.563 -14.854)"/>
        <path id="prefix__Trazado_93" d="M341.43 67.189l.506-.546a2.644 2.644 0 0 0 2.068.92c.844.01 1.613-.389 1.613-1.143s-.87-1.011-1.77-1.259c-.986-.288-2.053-.637-2.053-1.82a2.062 2.062 0 0 1 2.291-1.82 3.373 3.373 0 0 1 2.089.748l-.506.587a2.18 2.18 0 0 0-1.456-.612c-.743 0-1.573.283-1.573 1.011s.779 1.011 1.623 1.249c1.042.288 2.2.587 2.2 1.886 0 1.118-1.057 1.912-2.432 1.912a3.346 3.346 0 0 1-2.6-1.113z" class="prefix__cls-1" data-name="Trazado 93" transform="translate(-113.626 -14.854)"/>
        <path id="prefix__Trazado_94" d="M366.4 55.35v9.75h-.764l-.056-1.168a2.761 2.761 0 0 1-2.362 1.3 3.4 3.4 0 0 1 0-6.761 2.792 2.792 0 0 1 2.352 1.254V55.35zm-.829 7.11v-1.219a2.321 2.321 0 0 0-2.235-2.023 2.634 2.634 0 0 0 0 5.224 2.321 2.321 0 0 0 2.239-1.982z" class="prefix__cls-1" data-name="Trazado 94" transform="translate(-122.915 -11.804)"/>
        <path id="prefix__Trazado_95" d="M381.653 65.186h-5.214a2.266 2.266 0 0 0 2.276 2.341 2.114 2.114 0 0 0 1.927-1.107l.6.43a2.8 2.8 0 0 1-2.528 1.431 3.4 3.4 0 0 1 0-6.761c1.886 0 2.979 1.391 2.979 3.327a2.624 2.624 0 0 1-.04.339zm-5.2-.678h4.42a2.2 2.2 0 0 0-2.185-2.25 2.264 2.264 0 0 0-2.234 2.251z" class="prefix__cls-1" data-name="Trazado 95" transform="translate(-130.532 -14.854)"/>
        <path id="prefix__Trazado_96" d="M249.981 86.964h-2.731v8.956h-.87v-8.956h-2.73v-.794h6.331z" class="prefix__cls-1" data-name="Trazado 96" transform="translate(-65.293 -27.039)"/>
        <path id="prefix__Trazado_97" d="M258.12 88.3a.647.647 0 0 1 .637-.637.637.637 0 1 1-.637.637zm.207 1.871h.86v6.5h-.86z" class="prefix__cls-1" data-name="Trazado 97" transform="translate(-72.446 -27.775)"/>
        <path id="prefix__Trazado_98" d="M269.893 96.036h-5.214a2.262 2.262 0 0 0 2.276 2.336 2.094 2.094 0 0 0 1.922-1.1l.6.43a2.8 2.8 0 0 1-2.528 1.426 3.392 3.392 0 0 1 0-6.756c1.886 0 2.979 1.391 2.979 3.327a2.685 2.685 0 0 1-.035.337zm-5.2-.678h4.43a2.2 2.2 0 0 0-2.185-2.25 2.27 2.27 0 0 0-2.244 2.251z" class="prefix__cls-1" data-name="Trazado 98" transform="translate(-75.288 -30.103)"/>
        <path id="prefix__Trazado_99" d="M283 92.683l-.4.627a2 2 0 0 0-2.827 1.9v3.8h-.86v-6.519h.794l.04 1.067a2.427 2.427 0 0 1 1.987-1.193 2.068 2.068 0 0 1 1.269.319z" class="prefix__cls-1" data-name="Trazado 99" transform="translate(-82.722 -30.098)"/>
        <path id="prefix__Trazado_100" d="M292.7 92.684l-.4.627a1.992 1.992 0 0 0-2.807 1.9v3.8h-.86v-6.519h.794l.04 1.067a2.427 2.427 0 0 1 1.987-1.193 2.078 2.078 0 0 1 1.249.319z" class="prefix__cls-1" data-name="Trazado 100" transform="translate(-87.527 -30.099)"/>
        <path id="prefix__Trazado_101" d="M302.749 94.768v4.252h-.769l-.035-1.067a3.843 3.843 0 0 1-2.589 1.193 1.906 1.906 0 0 1-1.977-1.987c0-1.158.875-2.21 3.242-1.745l1.3.248v-.93c0-1.118-.794-1.6-1.81-1.6a2.1 2.1 0 0 0-1.922 1.011l-.6-.506a2.857 2.857 0 0 1 2.574-1.219 2.277 2.277 0 0 1 2.586 2.35zm-.829 2.407v-.85l-1.29-.268c-1.78-.364-2.377.308-2.377 1.062a1.209 1.209 0 0 0 1.284 1.264 3.464 3.464 0 0 0 2.362-1.209z" class="prefix__cls-1" data-name="Trazado 101" transform="translate(-91.851 -30.124)"/>
        <path id="prefix__Trazado_102" d="M124.582 74.181a.839.839 0 0 0 .759-.278c.354-.329.7-.668 1.052-1.011a.759.759 0 0 0 .243-.642 1.3 1.3 0 0 1 .137-.764.566.566 0 0 0 .091-.263 6.362 6.362 0 0 0 .046-.759 2.6 2.6 0 0 0-.44-1.421 2.493 2.493 0 0 1-.397-1.043 16.954 16.954 0 0 1-.066-1.76.977.977 0 0 1 0-.111 1.38 1.38 0 0 0-.137-.981c-.126-.217-.273-.425-.41-.637a5.351 5.351 0 0 1-.506-.794 3.5 3.5 0 0 1-.268-1.608.87.87 0 0 1 .3-.622.248.248 0 0 0-.035-.42l-.121-.076a.3.3 0 0 0-.425.152 3.417 3.417 0 0 0-.207.561 4.425 4.425 0 0 0-.116 1.057 6.033 6.033 0 0 0 .268 1.269 5.133 5.133 0 0 1 .263 1.7c0 .536-.066 1.072-.091 1.613a2.078 2.078 0 0 1-.445 1.2.217.217 0 0 0-.035.1c0 .263-.035.506-.056.789-.066.728-.131 1.461-.192 2.195a1.633 1.633 0 0 0 .137 1.011 2.529 2.529 0 0 1 .192.364c.147.389.278.784.42 1.178m1.107-42.7c.223.046.445.086.668.142a2.68 2.68 0 0 1 1.274.839 3.818 3.818 0 0 1 .435.546 1.249 1.249 0 0 1 .152.728c0 .349.025.7 0 1.047a2.171 2.171 0 0 1-.1.47c-.035.137-.1.263-.131.394a.506.506 0 0 1-.389.394 1.112 1.112 0 0 0-.506.42.328.328 0 0 0 0 .268 1.193 1.193 0 0 0 .551.824 4.759 4.759 0 0 0 1.431.632.925.925 0 0 0 .688-.1c.061-.03.091-.106.157-.182a3.193 3.193 0 0 1 .319.374 5.709 5.709 0 0 1 .657 1.831c.081.394.182.779.248 1.173s.076.764.111 1.143c.051.475.1.951.147 1.421v.086a5.26 5.26 0 0 0 .233 1.75 1.517 1.517 0 0 1-.1.951 3.4 3.4 0 0 1-.506 1.011 1.209 1.209 0 0 0-.121.506c-.121.839-.238 1.674-.354 2.528l-.369-.1v-.187c0-.071 0-.172-.035-.2a.536.536 0 0 0-.283-.086c-.03 0-.086.076-.106.131a1.087 1.087 0 0 0 .091 1.011 2.22 2.22 0 0 1 .314 1.183v1.087c0 .228.025.455.035.683a.783.783 0 0 1 0 .243c-.046.2-.1.4-.162.607a6.068 6.068 0 0 0-.228 1.244 2.878 2.878 0 0 1-.263.93 1.588 1.588 0 0 0-.162 1.042 4.552 4.552 0 0 1 0 1.906 11.336 11.336 0 0 1-.288 1.209 1.517 1.517 0 0 1-.3.46c-.046.046-.167 0-.273.04 0 .253-.1.506.061.779a1.36 1.36 0 0 1 .066.506.506.506 0 0 0 .03.2c.207.42.425.834.642 1.244a1.714 1.714 0 0 1 .217.688 21.413 21.413 0 0 1 .051 2.791 2.989 2.989 0 0 1-.293 1.148.89.89 0 0 0-.061.349c-.071.865-.142 1.735-.192 2.6a1.178 1.178 0 0 0 .116.506c.223.582.506 1.148.678 1.74a2.432 2.432 0 0 1 0 1.264.167.167 0 0 1-.106.086 3.394 3.394 0 0 1-1.153.061.237.237 0 0 1-.081 0 2.1 2.1 0 0 0-1.209-.081c-.571.066-1.143.187-1.719.2a7.338 7.338 0 0 1-1.851-.137.3.3 0 0 1-.263-.263c0-.086-.046-.106-.131-.1h-1.158a7.064 7.064 0 0 0-1.062.152 5.19 5.19 0 0 1-.622.066c-.587 0-1.178 0-1.765-.04a4 4 0 0 1-1.68-.421.4.4 0 0 1-.152-.6c.061-.106.106-.223.172-.329a.182.182 0 0 1 .111-.081h.657a3.989 3.989 0 0 0 .7-.03 1.517 1.517 0 0 0 .961-.506 3.54 3.54 0 0 1 1.011-.789.976.976 0 0 0 .364-.455 4.49 4.49 0 0 0 .308-1.456c.03-.3.076-.607.091-.91a3.383 3.383 0 0 0-.187-1.269.2.2 0 0 1 0-.177.142.142 0 0 0 0-.212c-.071-.081-.121-.182-.2-.263a.814.814 0 0 1-.2-.576c0-.587-.035-1.178 0-1.76a5.461 5.461 0 0 1 .152-1.011.971.971 0 0 0-.081-.678 4.789 4.789 0 0 1-.546-1.618 7.422 7.422 0 0 1 0-1.113 2.179 2.179 0 0 1 .556-1.239 1.472 1.472 0 0 0 .172-.6.459.459 0 0 0-.081-.1c-.167-.116-.349-.212-.506-.339a1.289 1.289 0 0 1-.389-.733 1.922 1.922 0 0 1-.056-.986.8.8 0 0 1 .046-.131c.162-.263.324-.506.506-.774a.829.829 0 0 0 .167-.415 8.561 8.561 0 0 1 .506-2.023c.2-.6.389-1.2.576-1.8.056-.2.086-.4.137-.622-.334-.056-.44-.339-.612-.561l-.946-1.214-.3.263c-.167.142-.339.283-.506.435a1.1 1.1 0 0 1-.506.3.2.2 0 0 0-.121.1 1.936 1.936 0 0 0-.167.41 4.283 4.283 0 0 1-.506.834.956.956 0 0 1-.652.546c-.056 0-.1.051-.157.066a.273.273 0 0 0-.228.268c0 .051-.071.1-.121.137s-.162.081-.238.126a.748.748 0 0 0-.293.4 5.7 5.7 0 0 1-1.183 1.906.136.136 0 0 1-.081.04 6.8 6.8 0 0 1-.85-.076.364.364 0 0 0-.48.258c-.03.076-.086.137-.121.207s-.035.086 0 .106c.1.137-.025.212-.081.3s-.091.2-.233.212a.288.288 0 0 0-.177.116c-.207.283-.415.571-.612.865a.45.45 0 0 0-.04.167v.1c-.228.324-.465.647-.708 1.011l-.308-.364.576-.925s.03-.035.046-.035c.172 0 .228-.131.308-.233l.536-.708c0-.03.061-.071.056-.1a.4.4 0 0 1 .263-.45c.248-.131.268-.389.42-.566a.212.212 0 0 0-.035-.121 1.411 1.411 0 0 1-.2-.647.708.708 0 0 1 .157-.506l1.517-2.023c.142-.187.137-.288 0-.445a.212.212 0 0 1 0-.349l.071-.051a1.219 1.219 0 0 0 .582-.657 2.776 2.776 0 0 0 .106-.349.172.172 0 0 0-.025-.106 2.526 2.526 0 0 1-.152-.344.187.187 0 0 1 .162-.228 1.36 1.36 0 0 1 .4.04.162.162 0 0 0 .2-.076q1.588-2.24 3.181-4.47c.086-.126.177-.253.268-.374a.248.248 0 0 0 0-.324.637.637 0 0 1-.116-.283.354.354 0 0 1 .334-.329l.344.03c.046-.137.1-.268.137-.4a7.46 7.46 0 0 0 .4-1.355 9.789 9.789 0 0 1 .131-1.011c.071-.334.207-.657.314-1.011a2.413 2.413 0 0 0 .086-.329 2.705 2.705 0 0 1 .506-1.148.83.83 0 0 1 .2-.2c.263-.2.536-.394.834-.612a1.375 1.375 0 0 0-.238-.1c-.394-.1-.506-.293-.349-.7a.212.212 0 0 0-.03-.172.142.142 0 0 1 0-.177.475.475 0 0 0 .03-.278.207.207 0 0 1 .045-.212c.177-.207.142-.263-.051-.369s-.137-.167-.025-.283a5.235 5.235 0 0 0 .415-.536.253.253 0 0 0-.1-.359 2.372 2.372 0 0 0-.47-.228.3.3 0 0 1-.212-.3 3.433 3.433 0 0 1 .238-1.426 1.628 1.628 0 0 1 .4-.46h.121a.42.42 0 0 0 .45-.126 2.766 2.766 0 0 1 .334-.268 3.358 3.358 0 0 1 1.193-.415l.121-.025z" class="prefix__cls-1" data-name="Trazado 102"/>
        <path id="prefix__Trazado_103" d="M168.08 44.679c.233.025.278 0 .263-.187-.233 0-.258 0-.263.187m-.319.324a.374.374 0 0 0-.45-.106.1.1 0 0 0-.056.071.157.157 0 0 0 0 .111.344.344 0 0 0 .506-.076M156.1 44.1c.076.035.162.111.222.1.142-.035.329 0 .425-.147-.308-.3-.46-.288-.647.051m11.919 32.364V76.3c-.051-.688-.091-1.381-.152-2.068a5.934 5.934 0 0 0-.126-.652h-.041c-.03.03-.071.051-.076.081a2.921 2.921 0 0 0-.066.622c.03.506.091 1.011.152 1.517a.819.819 0 0 0 .314.662m-10.286-14.19a1.309 1.309 0 0 0-.1.228 4.015 4.015 0 0 1-.344 1.188.364.364 0 0 0 0 .207c.071.44.152.875.223 1.315a1.4 1.4 0 0 1 .04.41.506.506 0 0 1-.329.379 1.3 1.3 0 0 0-.607.359.409.409 0 0 0-.086.142c-.076.3-.157.612-.212.92a1.724 1.724 0 0 0 0 .455c.051.506.126 1.011.152 1.517a4.812 4.812 0 0 1-.061 1.042 5.059 5.059 0 0 1-.238.743 6.829 6.829 0 0 0-.233 1.461.764.764 0 0 1-.319.627 1.249 1.249 0 0 1-.228.091 4.007 4.007 0 0 1-.051.769c-.046.425-.106.85-.162 1.274a1.664 1.664 0 0 0 .116.925 2.307 2.307 0 0 1 .091.379c.051.212.086.43.157.637a3.075 3.075 0 0 1 .207 1.128.435.435 0 0 1-.339.46 7.246 7.246 0 0 1-.936.1 1.178 1.178 0 0 1-.465-.121 1.739 1.739 0 0 0-.91-.071c-.587.071-1.173.131-1.765.162a2.25 2.25 0 0 1-1.35-.359.222.222 0 0 1-.086-.142 2.835 2.835 0 0 1 .076-.551.546.546 0 0 1 .192-.228 1.765 1.765 0 0 1 .885-.228c.192-.035.389-.066.576-.111a.172.172 0 0 0 .111-.1 1.193 1.193 0 0 1 .571-.753c.131-.081.253-.167.384-.253a.673.673 0 0 0 .283-.485c.061-.364.142-.723.177-1.087s.066-.839.091-1.259a4.337 4.337 0 0 1 .03-.627.571.571 0 0 0-.182-.506.91.91 0 0 1-.278-.668.505.505 0 0 0-.045-.192 2.139 2.139 0 0 1-.192-1.6c.086-.334.233-.652.329-1.011a1.011 1.011 0 0 0 .03-.46c-.076-.46-.207-.91-.263-1.37a4.045 4.045 0 0 1 .071-.809 1.33 1.33 0 0 1 .3-.7 1.254 1.254 0 0 0 .2-.789.329.329 0 0 0-.076-.152 3.99 3.99 0 0 1-.668-1.284 2.053 2.053 0 0 1 .106-1.441.2.2 0 0 1 .1-.091.192.192 0 0 0 .121-.228 2.4 2.4 0 0 1 0-.329 1.693 1.693 0 0 0-.106-.551 1.457 1.457 0 0 1-.051-.7c.258-1.011.546-1.982.829-2.973a.207.207 0 0 0-.056-.223 1.117 1.117 0 0 1-.273-.389.627.627 0 0 1 .369-.865.981.981 0 0 0 .359-.389c.046-.071-.035-.2-.126-.253s-.248-.152-.374-.233a.4.4 0 0 1-.172-.319c-.051-.334-.121-.668-.172-1.011-.025-.182-.03-.369-.051-.587a2.527 2.527 0 0 1-.394 0 3.316 3.316 0 0 1-.506-.071c-.04 0-.076-.081-.086-.131a.152.152 0 0 0-.187-.121 2.19 2.19 0 0 1-1.037-.137.905.905 0 0 1-.506-.546 1.517 1.517 0 0 1 .157-1.224 3.176 3.176 0 0 1 .4-.546c.157-.2.324-.4.46-.617a.885.885 0 0 0 .1-.369 1.517 1.517 0 0 1 .273-.632.9.9 0 0 1 .728-.48.465.465 0 0 0 .374-.243 1.518 1.518 0 0 1 .233-.273 1.8 1.8 0 0 0 .506-.875 2.3 2.3 0 0 1 .334-.632c.2-.273.425-.506.647-.784a1.932 1.932 0 0 1 .86-.566.248.248 0 0 0 .131-.137.46.46 0 0 1 .238-.268.263.263 0 0 0 .106-.126.6.6 0 0 1 .87-.263c.1.061.182.126.278.177a1.376 1.376 0 0 0 .243.076.7.7 0 0 0-.1-.506.7.7 0 0 1-.172-.44c0-.177-.131-.273-.3-.314a3.034 3.034 0 0 0-.8 0c-.243 0-.334-.04-.334-.278 0-.506.03-1.011.071-1.542a.505.505 0 0 1 .167-.268.278.278 0 0 0 .091-.238c0-.192-.03-.384-.035-.571a.434.434 0 0 1 .051-.187c.066-.147.147-.288.212-.43a2.023 2.023 0 0 1 .946-1.1 3.423 3.423 0 0 1 .93-.253 2.8 2.8 0 0 1 1.861.288 2.023 2.023 0 0 1 .971 1.183c.046.152.091.3.131.455a1.356 1.356 0 0 0 .233.506 1.8 1.8 0 0 1 .238.87c.046.268.076.541.111.809s-.066.344-.324.384a5.788 5.788 0 0 0-.834.162.475.475 0 0 0-.238.319 1.831 1.831 0 0 0 0 .506.268.268 0 0 0 .071.147l.809.688a.435.435 0 0 1 .142.2.379.379 0 0 0 .207.233c.167.076.334.162.506.253a2.286 2.286 0 0 0 .693.253 1.179 1.179 0 0 1 .41.212c.025 0 0 .091.025.137s0 .167.046.2a4.869 4.869 0 0 1 .946 1.3c.182.324.374.637.556.956l.091.142c.106-.4.2-.774.3-1.148a.506.506 0 0 1 .116-.223c.152-.2.329-.374.48-.571a5.27 5.27 0 0 1 1.118-1.082 3.165 3.165 0 0 1 1.345-.607c.228-.03.258-.111.137-.3l-.2-.3-.177.1a1.383 1.383 0 0 1 0-.162A1.011 1.011 0 0 0 167.6 43c-.056-.1-.1-.2-.162-.288a.359.359 0 0 1-.04-.42.157.157 0 0 0-.03-.137.455.455 0 0 1-.1-.364.243.243 0 0 1 .086-.157.506.506 0 0 0 .228-.308 9.6 9.6 0 0 1 .445-1.011 1.562 1.562 0 0 1 .905-.723 4.1 4.1 0 0 1 1.638-.157 2.788 2.788 0 0 1 2.073 1.193l.035.04c.066.106.137.172.278.131s.167.071.192.157c.1.314.192.627.288.941a.425.425 0 0 1-.066.415.273.273 0 0 0 0 .147.736.736 0 0 0 .04.288l-.754.172a1.65 1.65 0 0 0 .086.278c.1.182.2.359.293.541a1.338 1.338 0 0 1 .086.253h-.344c0 .152.025.293.025.435a1.168 1.168 0 0 1-.056.349.935.935 0 0 0-.1.44.423.423 0 0 1-.076.162c-.03.051-.116.187-.177.278a.379.379 0 0 1-.475.162c-.238-.076-.475-.131-.718-.192h-.025a3.066 3.066 0 0 0-.4.319.349.349 0 0 0-.035.243 1.983 1.983 0 0 0 .268.753 7.229 7.229 0 0 1 .465 1.072c.046.116.1.177.228.167a.46.46 0 0 1 .182.03.172.172 0 0 1 .106.081 7.083 7.083 0 0 1 .273.708.577.577 0 0 1 0 .278.43.43 0 0 0 .091.374c.2.243.4.506.592.738a.354.354 0 0 1 .076.228 1.987 1.987 0 0 0 .506 1.472 4.151 4.151 0 0 0 .7.708h.111a.9.9 0 0 1 .172.086.263.263 0 0 0 .121 0 .44.44 0 0 1 .389.207c-.086.106-.162.207-.248.3a.162.162 0 0 0-.03.212q1.183 2.589 2.362 5.178c.046.1.1.126.2.1a1.223 1.223 0 0 1 .233-.03c.091.157.142.3-.035.425-.03 0-.035.1-.025.137a2.022 2.022 0 0 0 .121.334 1.6 1.6 0 0 1 .137.652.532.532 0 0 0 .056.217l1.173 2.7a1.518 1.518 0 0 1 0 .748c0 .051-.111.091-.162.147a.177.177 0 0 0-.04.137c.035.116.086.233.131.349a.191.191 0 0 0 .046.066c.035 0 .106 0 .111.056a4.528 4.528 0 0 1 .116.45.282.282 0 0 0 .025.147 9.166 9.166 0 0 1 .506.85c.137.293.217.506.329.769l-.288.157c-.1-.308-.344-.551-.334-.89a.166.166 0 0 0 0-.066.553.553 0 0 0-.04-.076 4.886 4.886 0 0 0-.607-.961c-.03-.035 0-.106 0-.162a.258.258 0 0 0 0-.106c-.081-.177-.177-.349-.258-.506-.03-.071-.071-.081-.142-.071a2.485 2.485 0 0 0-.546.04.167.167 0 0 1-.182-.1 20.95 20.95 0 0 1-1.072-1.922c-.233-.506-.506-1.052-.738-1.578a.475.475 0 0 0-.339-.283.647.647 0 0 1-.42-.308c-.2-.3-.425-.6-.652-.89a.723.723 0 0 0-.506-.212.358.358 0 0 0-.1.081c-.116.207-.228.42-.349.627a.293.293 0 0 1-.162.106 1.482 1.482 0 0 1-.339.046.157.157 0 0 1-.116-.051l-.85-1.113c.091-.172.187-.344.273-.506a.182.182 0 0 0 0-.137c-.228-.228-.46-.445-.718-.688a1.722 1.722 0 0 1-.076.3c-.04.187-.076.379-.111.566-.051.278-.1.556-.142.829a.228.228 0 0 0 .025.126 2.6 2.6 0 0 1 .137 1.011c0 .506-.035 1.057-.061 1.588a7.945 7.945 0 0 0 .162 1.421 2.528 2.528 0 0 1-.152 1.284 3.537 3.537 0 0 1-.238.506.582.582 0 0 0 0 .582c.071.152.147.3.217.45a1.962 1.962 0 0 1 .071 1.011 6.436 6.436 0 0 1-.47 1.821 2.261 2.261 0 0 1-.389.592 1.579 1.579 0 0 0-.258.389 2.554 2.554 0 0 0-.212 1.254 7.907 7.907 0 0 0 .162.824 1.517 1.517 0 0 1-.035.678 3.7 3.7 0 0 0-.121 2.245 6.923 6.923 0 0 0 .556 1.583.233.233 0 0 0 .045.086c.334.319.657.642 1.011.936a.834.834 0 0 0 .571.192h.748a.536.536 0 0 1 .556.435c.04.223.066.445.091.673s-.091.228-.222.243c-.384.04-.764.076-1.153.1s-.688 0-1.011 0c-.92 0-1.836.03-2.756.025-.4 0-.809-.071-1.214-.1s-.819 0-1.224-.046l-1.011-.071a.8.8 0 0 1-.273-.066.339.339 0 0 1-.137-.339c0-.369.04-.733.061-1.1a.213.213 0 0 1 .03-.1 3.5 3.5 0 0 1 .217-.435 2.888 2.888 0 0 0 .41-1.568c.04-.875.091-1.755.126-2.635a.668.668 0 0 0-.081-.324.728.728 0 0 1 0-.743.364.364 0 0 0 0-.359c-.061-.131-.1-.273-.157-.4a1.35 1.35 0 0 1-.076-.88 8.86 8.86 0 0 1 .764-2.311 3.878 3.878 0 0 0 .329-1.295c.046-.359 0-.723.03-1.087a2.023 2.023 0 0 0-.131-.728l-1.517-4.126a.551.551 0 0 0-.172-.217c-.435-.324-.41-.324-.268-.784l.956-3.07a.506.506 0 0 0-.071-.506c-.314-.46-.612-.92-.91-1.391a.172.172 0 0 0-.258-.081c-.308.152-.612.319-.92.506a.2.2 0 0 0-.116.177.89.89 0 0 1-.329.642 1.012 1.012 0 0 0-.182.182.738.738 0 0 0-.2.506 1.815 1.815 0 0 1-.1.733.243.243 0 0 0 0 .177 4.749 4.749 0 0 1 .238 2.463 2.7 2.7 0 0 1-.233.8 3.541 3.541 0 0 0-.152.607c0 .035.04.081.061.116s.035.03.051.051a3.359 3.359 0 0 1 .546 1.143 2.812 2.812 0 0 1 0 .683 2.386 2.386 0 0 1-.248.844 4.264 4.264 0 0 0-.228.6 6.533 6.533 0 0 1-.536 1.042.506.506 0 0 0-.061.3 4.824 4.824 0 0 0 .455 1.391 7.65 7.65 0 0 1 .445.946 1.265 1.265 0 0 1 .046.657 3.929 3.929 0 0 0 .106 1.891 5.972 5.972 0 0 1 .1 1.047 1.092 1.092 0 0 1-.359.88 1.517 1.517 0 0 0-.4 1.052c0 .394-.071.784-.106 1.173a1.381 1.381 0 0 0 .061.571 2.634 2.634 0 0 1 .071.632.667.667 0 0 1-.03.243 2.145 2.145 0 0 0 .182 1.123 3.534 3.534 0 0 1 .081.506 2.456 2.456 0 0 0 .035.506.389.389 0 0 1-.324.506 1.184 1.184 0 0 1-.268.04h-1.851a.394.394 0 0 1-.308-.506c.03-.162.03-.334.061-.506s.116-.354.142-.536a11.33 11.33 0 0 0 .2-1.517 5.054 5.054 0 0 1 .086-.87 6.413 6.413 0 0 0 0-1.284 3.627 3.627 0 0 0-.051-.743.253.253 0 0 0-.091-.182.764.764 0 0 1-.324-.506c-.106-.582-.2-1.173-.288-1.76a.455.455 0 0 1 .04-.273 1.062 1.062 0 0 0 .071-.9c-.157-.506-.217-1.011-.354-1.487a5.336 5.336 0 0 0-.324-.743 1.065 1.065 0 0 0-.131-.2 1.421 1.421 0 0 1-.248-1.345 1.972 1.972 0 0 0 .056-.339 1.441 1.441 0 0 0-.121-.693 8.549 8.549 0 0 1-.339-.956.308.308 0 0 1 0-.177 2.393 2.393 0 0 0 .152-.925c0-.223 0-.223-.192-.45" class="prefix__cls-1" data-name="Trazado 103" transform="translate(-18.957 -3.09)"/>
    </g>
</svg>
