<svg xmlns="http://www.w3.org/2000/svg" width="28.368" height="28.363" viewBox="0 0 28.368 28.363">
    <path d="M26.15 28.363a11.968 11.968 0 0 0-23.865-1.271c-.049.42-.047.847-.069 1.271H0c.226-6.549 3.546-10.911 9.465-13.45a8.1 8.1 0 0 1-3.469-6.655 7.871 7.871 0 0 1 2.425-5.874 8.17 8.17 0 0 1 11.555.02c.041.04.081.081.12.123a8.213 8.213 0 0 1-1.249 12.427l.309.124a14.089 14.089 0 0 1 8.621 9.229 12.475 12.475 0 0 1 .543 2.959 2.316 2.316 0 0 0 .049.266v.833zM14.158 14.182A5.983 5.983 0 1 0 8.201 8.16a6 6 0 0 0 5.957 6.022z"/>
</svg>
