<?xml version="1.0" encoding="utf-8"?>
<!-- Generator: Adobe Illustrator 24.0.2, SVG Export Plug-In . SVG Version: 6.00 Build 0)  -->
<svg version="1.1" id="Capa_1" xmlns="http://www.w3.org/2000/svg" xmlns:xlink="http://www.w3.org/1999/xlink" x="0px" y="0px"
	 viewBox="0 0 182.92 135.53" style="enable-background:new 0 0 182.92 135.53;" xml:space="preserve">
<style type="text/css">
	.st0{fill:#020203;stroke:#BED78A;stroke-width:3;}
	.st1{fill:none;}
	.st2{fill:#020203;}
	.st3{fill:none;stroke:#020203;stroke-width:0;stroke-linecap:round;stroke-linejoin:round;}
</style>
<path class="st0" d="M118.5,69.69"/>
<path class="st0" d="M68.46,69.76"/>
<path class="st1" d="M113.54,70.6c0.17-0.15,0.21-0.41,0.21-0.47l-0.05-0.59l-0.15-1.73c0.01,0.7,0.01,1.42,0,2.18L113.54,70.6z"/>
<path class="st1" d="M96.36,78.57l0.02,0.6l0.26-0.25C96.54,78.8,96.45,78.69,96.36,78.57z"/>
<path class="st2" d="M164.7,51.41c-0.02,0.01-1.77,0.89-4.05,1.5c-2.86,0.78-6.26,1.58-6.29,1.59l-1.57,0.29l-3.33,0.34
	c-3,0.3-7.22,0.02-8-0.04c-0.34,0.54-0.73,1-1.14,1.4c-1.13,1.15-3.1,2.23-6.52,2.51c-0.01,0-0.02,0.01-0.03,0.01
	c0,0.34-0.22,0.81-0.46,1.21l0.01,0l-0.01,0.01c-0.08,0.14-0.17,0.27-0.24,0.38l0.01,0c6.31,0.74,18,1.54,25.36-1.5
	c0.04-0.02,0.08-0.03,0.12-0.05c5.49-2.51,7.82-6.37,7.99-6.67l0.13-0.43c0.05-0.08,0.04-0.14-0.03-0.21
	C166.3,51.39,165.01,51.24,164.7,51.41z"/>
<path class="st2" d="M131.1,58.5c-0.36-0.02-0.75-0.04-1.16-0.06l1.1,0.12c0.11,0.01,0.22,0.02,0.34,0.03
	c1.56,0.12,1.99,0.04,2.07,0.02l0,0C132.15,58.64,131.2,58.52,131.1,58.5z"/>
<path class="st2" d="M133.04,61.03l-0.36,0.06l-0.34,0.31c7.91,0.92,13.59,0.78,17.32,0.4c2.05-0.22,4.05-0.58,5.83-1.12l0.13-0.05
	l0,0.01c0.83-0.26,1.62-0.56,2.34-0.91C150.5,62.53,139.23,61.76,133.04,61.03z"/>
<path class="st2" d="M124.79,58.24c-0.21,0.07-0.92,0.08-3.83-0.05c-0.03,0.01-0.1,0.02-0.19,0.05l0,0l3.49,0.16l3.7,0.09l0.58-0.11
	C126.79,58.29,125.09,58.22,124.79,58.24z"/>
<path class="st2" d="M115.83,61.25C115.83,61.26,115.83,61.26,115.83,61.25c0.12-0.14,0.22-0.24,0.32-0.33l-0.01-0.01l0.69-0.6
	c0.26-0.28,0.52-0.52,0.79-0.73C116.92,60.03,116.28,60.58,115.83,61.25z"/>
<path class="st2" d="M139.6,53.85l-18.48,0.14h-5.24c-1.58,0.51-2.77,1-3.44,1.29c0.02,0.09,0.04,0.19,0.06,0.28
	c0.24,1.11,0.49,2.67,0.69,4.76c0.31,1.71,0.44,3.07,0.49,3.76c0.22-0.47,0.74-1.45,1.8-3.06c0.65-0.99,1.76-1.84,3.3-2.53
	c1.14-0.5,2.07-0.72,2.11-0.73l0.03-0.01l0.03,0c1.56,0.07,3.31,0.13,3.65,0.1c0.16-0.08,0.72-0.06,3.34,0.06
	c1.58,0.07,3.17,0.16,3.19,0.16l0.02,0c0.04,0.01,4.42,0.58,7.26-1.01c2.46-1.37,2.89-3.49,2.96-3.99L139.6,53.85z"/>
<path class="st2" d="M117.34,60.4c0.58,0.23,1.97,0.73,3.32,0.84c0.58,0.04,1.07,0,1.48-0.07c0.23-0.05,0.46-0.12,0.67-0.21
	l0.03-0.01c0.03-0.01,0.68-0.19,1.01-1.02c0.17-0.42,0.22-0.73,0.22-0.94c0-0.07-0.01-0.13-0.01-0.18l-3.29-0.15
	C120.62,58.67,118.87,58.89,117.34,60.4z"/>
<path class="st2" d="M119.36,61.47c-1.09-0.24-2.02-0.61-2.35-0.74l-0.09,0.08c0.41,0.16,1.19,0.45,2.1,0.63
	C119.13,61.45,119.25,61.46,119.36,61.47z"/>
<path class="st2" d="M124.49,58.82c0.09,0.88-0.22,2.33-1.93,2.92l-0.04,0.25c2.82,1.15,5.16,0.93,6.63,0.55
	c1.08-0.28,1.86-0.69,2.26-0.93c0.1-0.06,0.2-0.13,0.3-0.2c0.58-0.6,1.44-1.65,1.59-2.25l-0.95-0.02l-1.41-0.16l-2.1-0.23
	l-0.84,0.16L124.49,58.82z"/>
<path class="st2" d="M115.47,62.49c1.74,0.55,3.08,0.76,4.04,0.82l0.24-0.17l-0.16,0.18c0.75,0.04,1.26-0.01,1.53-0.05
	c0.08-0.01,0.15-0.03,0.23-0.05c0.1-0.05,0.61-0.35,0.73-1.1l0.05-0.29c-0.91,0.12-3.74,0.37-5.54-0.7
	C116.45,61.21,116.08,61.51,115.47,62.49z"/>
<path class="st2" d="M119.14,63.81l0.69-0.02c0.06-0.01,0.12-0.02,0.18-0.03c-0.24,0-0.5-0.01-0.79-0.04L119.14,63.81z"/>
<path class="st2" d="M115.16,62.99c0.36,0.13,1.08,0.38,1.92,0.57c0.73,0.14,1.39,0.22,1.59,0.24c0.05,0,0.1,0.01,0.15,0.01l0,0
	l0.16-0.11c-0.96-0.1-2.2-0.34-3.75-0.83L115.16,62.99z"/>
<path class="st2" d="M117.65,64.57c0.04-0.01,0.08-0.03,0.11-0.04c0.17-0.09,0.34-0.21,0.5-0.35c-0.1-0.01-0.21-0.03-0.33-0.05
	L117.65,64.57z"/>
<path class="st2" d="M117.35,64.66l0.55-0.53c-0.86-0.13-2.2-0.37-2.99-0.75l-0.37,0.59C115.76,64.77,116.73,64.79,117.35,64.66z"/>
<path class="st2" d="M130.09,62.68c-1.67,0.6-4.34,1.04-7.6-0.25l-0.12,0.3c0.21,0.11,0.42,0.21,0.64,0.29
	c1.39,0.39,4.2,0.95,6.58-0.06C129.76,62.87,129.93,62.77,130.09,62.68z"/>
<path class="st2" d="M132.05,61.8c-0.31,0.26-1.56,1.27-2.74,1.75c5.59,1.5,13.19,3.03,18.9,2.28c0.27-0.04,0.52-0.07,0.76-0.12
	c1.23-0.24,2.34-0.6,3.28-1.14c1.39-0.78,2.32-1.89,2.76-3.29C153.35,61.78,146.2,63.47,132.05,61.8z"/>
<path class="st2" d="M128.61,63.8l-0.86,0.12l-0.01,0.03c1.21,0.38,6.76,2.04,12.56,2.59c1.22,0.1,2.34,0.15,3.29,0.17
	c1.84,0.01,3.63-0.14,5.23-0.53c-0.15,0.02-0.31,0.05-0.47,0.07C142.36,67.05,134.32,65.36,128.61,63.8z"/>
<path class="st2" d="M122.17,63.1c-0.19,0.26-0.63,0.73-1.43,0.98c2.34,1.01,3.89,1.08,4.8,0.95c0.13-0.03,0.26-0.06,0.38-0.1
	c0.55-0.18,0.99-0.51,1.3-0.96C126.29,64.03,123.99,64.07,122.17,63.1z"/>
<path class="st2" d="M119.98,64.2l-0.28,0.01c0.34,0.18,0.65,0.34,0.95,0.47c0.97,0.42,2.27,0.84,3.55,0.8
	C123.16,65.39,121.77,65.05,119.98,64.2z"/>
<path class="st2" d="M114.2,64.5c0.52,0.35,0.94,0.57,1.28,0.7c0.25,0.07,0.52,0.12,0.8,0.11c0.16-0.01,0.31-0.03,0.46-0.07
	l0.1-0.09c-0.67,0.02-1.53-0.16-2.53-0.82L114.2,64.5z"/>
<path class="st2" d="M118.89,64.24l-0.05,0c-0.12,0.2-0.43,0.57-1.2,1.08c2.49,1.6,4.28,1.58,5.42,1.2c0.35-0.13,0.69-0.32,1-0.56
	C123.17,65.98,121.46,65.75,118.89,64.24z"/>
<path class="st2" d="M127.55,64.34c-0.16,0.32-0.65,0.9-2.04,1.38c0.67,0.27,1.39,0.55,2.15,0.82c2.14,0.73,5.27,1.68,8.45,2.18
	c1.35,0.19,2.71,0.29,4.06,0.28c2.2-0.03,3.65-0.38,4.37-0.61c0.8-0.3,1.51-0.72,2.1-1.28C144.43,67.19,135.81,67.31,127.55,64.34z"
	/>
<path class="st2" d="M115.96,65.83L115.96,65.83l0.1-0.04c-0.46-0.06-1.13-0.3-2.07-0.93l-0.15,0.28v0.68
	c0.05,0.01,0.1,0.02,0.17,0.03c0.08,0.01,0.15,0.03,0.22,0.04C114.7,65.97,115.41,66.02,115.96,65.83z"/>
<path class="st2" d="M123.05,66.94c-1.27,0.38-3.21,0.34-5.8-1.37c-0.08,0.04-0.19,0.09-0.32,0.1c-0.04,0.06-0.1,0.13-0.16,0.21
	c0.78,0.48,1.47,0.81,2.06,1.03c0.78,0.29,1.68,0.5,2.57,0.46l0-0.01l0.16-0.02l0.34-0.08l-0.01,0.04l0.1-0.01
	C122.36,67.23,122.72,67.11,123.05,66.94z"/>
<path class="st2" d="M139.86,69.41c-5.42,0-11.1-1.89-14.97-3.5l-0.21,0.03l-0.15,0.22c0.43,0.19,0.85,0.36,1.27,0.53
	c2.19,0.81,6.37,2.21,10.44,2.77c3.74,0.43,5.86,0,5.9-0.01l0.63-0.14c0.24-0.07,0.47-0.14,0.69-0.22c-0.8,0.16-1.88,0.3-3.24,0.32
	C140.1,69.41,139.98,69.41,139.86,69.41z"/>
<path class="st2" d="M124.36,66.55c-0.23,0.25-0.81,0.79-1.75,1.05c0.77,0.48,1.52,0.91,2.24,1.29c0.01,0,0.01,0.01,0.02,0.01
	c0.04,0.02,0.09,0.05,0.13,0.07c1.08,0.56,2.39,1.19,3.83,1.73c5.11,1.89,8.48,1.4,10.15,0.87c0.94-0.34,1.83-0.86,2.61-1.61
	C139.66,70.19,133.4,70.48,124.36,66.55z"/>
<path class="st2" d="M122,67.72l-0.21,0.02l0,0.01c0.11,0.08,0.32,0.22,0.6,0.41c0.49,0.31,0.96,0.61,1.42,0.88
	c1.16,0.68,2.7,1.49,4.44,2.16c2.31,0.89,5.28,1.66,8.13,1.26c-0.18,0.01-0.36,0.02-0.55,0.02c-0.08,0-0.16,0-0.24,0
	C130.63,72.49,125.49,69.92,122,67.72z"/>
<path class="st2" d="M116.41,66.15c-0.22,0.13-0.7,0.31-1.66,0.24c0.69,0.55,1.3,0.99,1.85,1.33c1.23,0.74,2.66,1.35,3.67,1.06
	c0.08-0.02,0.16-0.06,0.23-0.09l0.42-0.31c0.14-0.15,0.26-0.34,0.36-0.57C120.58,67.83,118.87,67.71,116.41,66.15z"/>
<path class="st2" d="M113.86,66.26l0.04,0.61c0.37,0.28,2.07,1.5,3.7,2.1c0.03,0.01,0.06,0.02,0.08,0.03
	c0.02,0.01,0.04,0.02,0.07,0.02c0.05,0.02,0.1,0.03,0.14,0.05c0.11,0.04,0.22,0.07,0.33,0.1l0-0.01l0.01,0.01
	c0.12,0.03,0.24,0.06,0.36,0.08c0.04,0,0.08,0,0.11,0.02c0.25,0.04,0.49,0.05,0.71,0.02c-1.03-0.1-2.76-0.74-5.43-2.99L113.86,66.26
	z"/>
<path class="st2" d="M114.12,69.42c0.44,0.4,0.85,0.71,1.25,0.95c0.01,0.01,0.02,0.01,0.03,0.02c0.03,0.02,0.07,0.04,0.1,0.06
	c0.54,0.3,1.15,0.51,1.69,0.38c0.46-0.11,0.82-0.47,1.08-1.07l-0.03-0.03l0.05-0.08l0-0.02c-0.63-0.15-2.22-0.65-4.33-2.19
	L114.12,69.42z"/>
<path class="st2" d="M116.14,71.18l0.08,0.08c0.01,0,0.03,0.01,0.04,0.01h0.31C116.44,71.26,116.29,71.23,116.14,71.18z"/>
<path class="st2" d="M114.17,70.02l0,0.01c0.81,0.72,1.43,1.03,1.76,1.16c0,0,0,0,0,0l0-0.08C115.39,70.91,114.8,70.55,114.17,70.02
	z"/>
<path class="st2" d="M136.46,72.98c-1.69,0.31-6.76,0.56-14.76-4.77c-0.15,0.24-0.44,0.63-0.92,0.89c-0.09,0.16-0.34,0.41-1.08,0.59
	c4.59,3.8,8.01,5.21,10.38,5.59c0.63,0.09,1.26,0.11,1.88,0.06C133.74,75.2,135.25,74.4,136.46,72.98z"/>
<path class="st2" d="M118.91,69.77c1.59,1.42,3.05,2.51,4.36,3.34c2.18,1.38,4.84,2.64,7.36,2.68c-3.27-0.33-7.13-2.35-11.47-6.01
	C119.06,69.79,118.98,69.78,118.91,69.77z"/>
<path class="st2" d="M118.66,70.12c-0.12,0.39-0.46,0.95-1.42,1.44c1.29,1.37,2.46,2.45,3.51,3.3c1.79,1.42,4.29,2.98,6.52,2.9
	c0.37-0.01,0.72-0.07,1.05-0.17c0.05-0.03,0.08-0.05,0.08-0.05l0.02,0.02c0.69-0.23,1.3-0.65,1.84-1.26
	C128.91,76.23,124.77,75.55,118.66,70.12z"/>
<path class="st2" d="M116.79,71.7h-0.14c2.83,2.82,4.89,4.42,6.33,5.33c1.18,0.7,2.37,1.19,3.41,1.23c0.01,0,0.01,0,0.02,0
	C124.54,78.02,121.42,76.63,116.79,71.7z"/>
<path class="st2" d="M113.75,73.1c0.72,0.18,1.19-0.04,1.28-0.09c0.01,0,0.01-0.01,0.02-0.01l0.01,0.01
	c0.35-0.25,0.63-0.71,0.83-1.39c-0.32-0.11-0.95-0.4-1.8-1.11c-0.07,0.19-0.21,0.41-0.46,0.53c-0.03,0.02-0.07,0.03-0.1,0.04
	l-0.07,1.89C113.56,73.03,113.65,73.07,113.75,73.1z"/>
<path class="st2" d="M101.97,82.77c0.11-0.51,0.18-0.99,0.22-1.44c-0.93-0.03-1.71-0.17-2.34-0.35l-1.92,2.56
	c-0.1,0.27-0.01,0.37,0.02,0.41c0.33,0.39,1.76,0.27,2.6,0.09C101.22,83.77,101.67,83.31,101.97,82.77z"/>
<path class="st2" d="M114.28,73.78c0.17,0.23,0.34,0.46,0.51,0.68c0.61,0.8,1.56,1.97,2.65,3.11c2.46,2.58,4.5,3.8,5.89,3.54
	c0.16-0.03,0.31-0.08,0.45-0.15c0.22-0.12,0.33-0.25,0.34-0.26l0.03,0.03c0.52-0.41,0.92-1.13,1.21-2.14
	c-0.82-0.16-3.51-1.1-9.06-6.66C116.17,72.55,115.73,73.56,114.28,73.78z"/>
<path class="st2" d="M120.87,81c-1.66-0.88-3.98-2.91-7.1-7.19l-0.14-0.02c0.16,0.22,0.32,0.44,0.48,0.65
	c1.33,1.74,4.13,5.15,6.58,6.52c0.05,0.02,0.08,0.03,0.08,0.03L120.87,81z"/>
<path class="st2" d="M121.02,81.12c0.41,0.2,0.8,0.33,1.17,0.39c-0.34-0.08-0.72-0.21-1.15-0.42L121.02,81.12z"/>
<path class="st2" d="M120.41,81.29c-0.75-0.33-2.99-1.68-7-7.1l-0.14,3.79l-0.1,0.06c0,0-0.06,0.04-0.17,0.1
	c1.52,2.11,3.51,4.3,5.3,4.38C119.11,82.56,119.81,82.14,120.41,81.29z"/>
<path class="st2" d="M114.91,81.26c0.52,0.5,1.04,0.91,1.56,1.2l0.07,0C116.05,82.2,115.51,81.82,114.91,81.26z"/>
<path class="st2" d="M116.75,82.6c0.21,0.09,0.42,0.17,0.62,0.21c0.01,0,0.02,0.01,0.03,0.01c-0.2-0.06-0.41-0.14-0.64-0.25
	L116.75,82.6z"/>
<path class="st2" d="M112.19,78.57c-0.72,0.37-1.78,0.87-3.02,1.35c0.34,0.57,0.71,1.14,1.1,1.68c0.11,0.13,0.17,0.19,0.17,0.2
	l0.02,0.02l0.02,0.03l0.06,0.11l0.27,0.33c0.03,0.03,0.05,0.06,0.08,0.1c0.56,0.65,1.15,1.19,1.76,1.52
	c0.03,0.01,0.05,0.03,0.08,0.04c0.02,0.01,0.03,0.02,0.05,0.02c0.04,0.02,0.09,0.04,0.13,0.06c0,0,0,0,0,0
	c0.04,0.02,0.08,0.04,0.12,0.05c0.01,0,0.01,0.01,0.02,0.01c0.03,0.01,0.06,0.02,0.09,0.03c0.02,0.01,0.05,0.02,0.07,0.02
	c0.01,0,0.03,0.01,0.04,0.01c0.14,0.04,0.28,0.07,0.42,0.08c0.27,0.03,0.53,0,0.79-0.08l0.44-0.19c0.42-0.24,0.83-0.63,1.21-1.17
	C115.55,82.56,114.32,81.7,112.19,78.57z"/>
<path class="st2" d="M110.95,83.58l-0.82-1.5c-0.12-0.12-0.62-0.68-1.39-1.99c-0.17,0.06-0.34,0.12-0.51,0.18
	c-0.86,0.29-1.65,0.52-2.39,0.68c0.5,2.32,1.25,3.72,2.19,4.06C108.82,85.29,109.81,84.81,110.95,83.58z"/>
<path class="st2" d="M107.43,85.27c0.02,0.01,0.04,0.02,0.06,0.03c-0.44-0.27-0.83-0.71-1.16-1.33
	C106.65,84.62,107.02,85.06,107.43,85.27z"/>
<path class="st2" d="M105,81.11c-0.88,0.15-1.67,0.22-2.38,0.23c-0.05,0.54-0.14,1.12-0.28,1.73c0.29,0.65,0.7,1.05,1.21,1.2
	c0.15,0.04,0.31,0.06,0.46,0.07c0.5-0.02,1.08-0.22,1.74-0.61C105.6,83.38,105.27,82.49,105,81.11z"/>
<path class="st2" d="M103.07,84.53c-0.41-0.21-0.75-0.57-1.01-1.07l-0.11,0.12C102.11,83.81,102.51,84.28,103.07,84.53z"/>
<path class="st2" d="M92.08,41.03L92.2,41l-0.2-28.54l-4.65,6.25l0.69,22.99C88.63,41.54,90.11,41.19,92.08,41.03z"/>
<path class="st2" d="M92.63,40.93l1.08-0.17l0.78,0.04l1.07,0.2c0.2,0.01,0.41,0.03,0.61,0.05l0.16-21.82l-3.91-6.53L92.63,40.93z"
	/>
<polygon class="st2" points="93.04,97.37 93.03,98.04 95.72,98 95.81,84.91 93.6,86.88 93.58,91.43 93.55,96.62 93.55,96.62 
	93.55,96.64 93.19,96.3 93.06,96.18 "/>
<polygon class="st2" points="90.88,94.03 90.88,94.03 90.87,94.02 90.87,93.94 90.39,85.99 89.35,84.58 89.71,98 92.61,98.04 
	92.65,95.8 90.94,94.09 "/>
<polygon class="st2" points="87.02,101.5 89.29,101.47 89.11,101.4 89.76,101.4 89.76,101.38 89.84,101.4 95.09,101.4 98.36,101.36 
	98.36,98.66 86.89,98.7 "/>
<path class="st2" d="M92.55,110.52c0.05,0,0.09,0,0.14,0c0.81,0,1.55,0.27,2.15,0.71l-0.03-1.26l-4.57-1.71v1.37L92.55,110.52z"/>
<polygon class="st2" points="94.36,107.29 90.24,106.07 90.24,107.8 94.81,109.52 94.85,107.43 "/>
<polygon class="st2" points="90.28,103.96 90.24,105.63 94.85,106.99 94.81,105.28 "/>
<polygon class="st2" points="94.78,103 94.89,101.82 91.52,101.82 "/>
<polygon class="st2" points="90.21,101.97 90.28,103.52 94.8,104.83 94.76,103.45 "/>
<path class="st2" d="M90.45,111.3l0.06-0.06l0.3-0.3l0.41-0.23l0.39-0.11l-1.37-0.53v1.4C90.31,111.42,90.38,111.36,90.45,111.3z"/>
<path class="st2" d="M92.69,110.94c-1.75,0-3.17,1.41-3.17,3.15c0,1.74,1.42,3.15,3.17,3.15c1.75,0,3.17-1.41,3.17-3.15
	C95.86,112.35,94.44,110.94,92.69,110.94z M92.62,117.13c-1.6,0-2.9-1.35-2.9-3.02c0-1.66,1.3-3.02,2.9-3.02s2.9,1.35,2.9,3.02
	C95.52,115.78,94.22,117.13,92.62,117.13z"/>
<path class="st2" d="M95.1,114.11c0-1.43-1.11-2.6-2.48-2.6s-2.48,1.16-2.48,2.6c0,1.43,1.11,2.6,2.48,2.6S95.1,115.54,95.1,114.11z
	"/>
<path class="st2" d="M29.16,59.13c0.04,0.02,0.07,0.03,0.11,0.05c7.23,3.04,18.7,2.25,24.9,1.5l0.01,0
	c-0.08-0.12-0.16-0.25-0.24-0.39l-0.02-0.02l0.01,0.01c-0.23-0.4-0.45-0.87-0.45-1.2c-0.01,0-0.02-0.01-0.03-0.01
	c-3.4-0.28-5.34-1.37-6.44-2.54c-0.4-0.39-0.76-0.84-1.09-1.36c-0.78,0.06-4.91,0.34-7.86,0.04l-3.28-0.34l-1.51-0.29
	c-0.04-0.01-3.38-0.81-6.19-1.59c-2.24-0.62-3.96-1.5-3.98-1.51c-0.31-0.16-1.55-0.03-1.89,0.33c-0.08,0.08-0.07,0.14-0.03,0.22
	l0.02,0.04l0.11,0.39C21.47,52.76,23.77,56.63,29.16,59.13z"/>
<path class="st2" d="M53.81,58.69c0.1,0.02,0.55,0.09,2.02-0.02c0.06,0,0.11-0.01,0.17-0.01l0.19-0.02l1-0.11
	c-0.39,0.02-0.76,0.04-1.09,0.06C55.97,58.59,55.05,58.71,53.81,58.69z"/>
<path class="st2" d="M32.01,60.71l0.14,0.05c1.75,0.54,3.71,0.9,5.73,1.12c3.66,0.38,9.23,0.52,16.99-0.4l-0.34-0.31l-0.35-0.06
	c-6.07,0.73-17.13,1.49-24.45-1.28C30.43,60.16,31.2,60.46,32.01,60.71L32.01,60.71z"/>
<path class="st2" d="M69.35,59.68c0.26,0.21,0.51,0.44,0.76,0.72l0.67,0.59L70.77,61c0.08,0.08,0.18,0.18,0.29,0.3
	C70.63,60.65,70.01,60.11,69.35,59.68z"/>
<path class="st2" d="M62.28,58.31c-0.29-0.02-1.96,0.05-3.69,0.13l0.57,0.11l3.65-0.09l3.41-0.16c-0.09-0.02-0.15-0.04-0.18-0.05
	C63.2,58.39,62.49,58.38,62.28,58.31z"/>
<path class="st2" d="M48.92,57.15c2.79,1.58,7.08,1.01,7.12,1.01l0.02,0c0.02,0,1.58-0.09,3.13-0.16c2.59-0.12,3.13-0.14,3.29-0.06
	c0.34,0.03,2.05-0.02,3.58-0.1l0.03,0l0.03,0.01c0.15,0.04,3.8,0.9,5.32,3.26c0.72,1.12,1.19,1.94,1.48,2.49
	c0.19-1.74,0.51-3.71,1.04-5.73c0.21-0.82,0.45-1.62,0.72-2.39c-0.58-0.27-1.85-0.83-3.63-1.41h-5.14l-18.15-0.14l-1.73-0.75
	C46.09,53.66,46.51,55.78,48.92,57.15z"/>
<path class="st2" d="M63,58.88c-0.01,0.05-0.01,0.11-0.01,0.18c0.01,0.21,0.06,0.51,0.22,0.94c0.32,0.83,0.96,1.01,0.99,1.02
	l0.03,0.01c0.21,0.09,0.43,0.16,0.65,0.21c0.4,0.08,0.88,0.12,1.45,0.07c1.33-0.11,2.69-0.61,3.26-0.84
	c-1.51-1.52-3.22-1.73-3.37-1.75L63,58.88z"/>
<path class="st2" d="M69.93,60.8c-0.33,0.14-1.24,0.51-2.31,0.74c0.11-0.01,0.23-0.02,0.34-0.04c0.9-0.18,1.66-0.46,2.06-0.63
	L69.93,60.8z"/>
<path class="st2" d="M54.84,59.21l-0.91,0.02c0.15,0.6,0.99,1.65,1.56,2.25c0.09,0.06,0.18,0.12,0.27,0.18
	c0.95,0.59,4.27,2.25,8.75,0.4l-0.04-0.25c-1.67-0.58-1.98-2.03-1.89-2.91l-3.45,0.08l-0.82-0.16l-2.07,0.23L54.84,59.21z"/>
<path class="st2" d="M70.34,61.19c-1.77,1.07-4.53,0.82-5.43,0.7l0.05,0.29c0.12,0.75,0.62,1.05,0.72,1.1
	c0.07,0.02,0.13,0.03,0.2,0.04c0.59,0.1,2.41,0.25,5.57-0.77C70.84,61.58,70.48,61.28,70.34,61.19z"/>
<path class="st2" d="M71.66,62.94c-2.14,0.7-3.69,0.88-4.69,0.89c0.06,0.01,0.11,0.02,0.17,0.02l0.87,0.03l0.16-0.01
	c0.03,0,0.06,0,0.1-0.01c0.18-0.02,0.85-0.1,1.59-0.25c0.82-0.19,1.53-0.43,1.87-0.56L71.66,62.94z"/>
<path class="st2" d="M69.05,64.2l0.54,0.53c0.61,0.14,1.56,0.12,2.75-0.69l-0.37-0.59C71.21,63.82,69.89,64.07,69.05,64.2z"/>
<path class="st2" d="M69.01,64.2c-0.12,0.02-0.22,0.03-0.32,0.05c0.16,0.14,0.33,0.26,0.51,0.36c0.03,0.01,0.06,0.02,0.09,0.04
	L69.01,64.2z"/>
<path class="st2" d="M64.03,63.09c0.21-0.08,0.42-0.18,0.62-0.29l-0.11-0.3c-2.82,1.13-5.17,0.91-6.66,0.51
	c-0.27-0.07-0.51-0.15-0.74-0.23c0.15,0.09,0.29,0.17,0.44,0.25C59.9,64.04,62.66,63.48,64.03,63.09z"/>
<path class="st2" d="M35.38,64.68c0.92,0.52,2,0.88,3.19,1.11c0.23,0.04,0.47,0.08,0.73,0.11c5.61,0.75,13.07-0.79,18.55-2.28
	c-1.15-0.48-2.38-1.49-2.69-1.75c-8.32,1-14.09,0.78-17.48,0.42c-2.74-0.29-4.38-0.71-5.07-0.92C33.05,62.79,33.98,63.9,35.38,64.68
	z"/>
<path class="st2" d="M59.38,63.99l-0.84-0.12c-5.6,1.57-13.5,3.26-19.38,2.44c-0.16-0.02-0.31-0.04-0.46-0.07
	c1.56,0.39,3.29,0.54,5.08,0.53c0.97-0.02,2.12-0.08,3.38-0.18c5.66-0.55,11.05-2.2,12.23-2.58L59.38,63.99z"/>
<path class="st2" d="M61.19,65.01c0.11,0.04,0.23,0.07,0.35,0.09c0.89,0.13,2.41,0.06,4.72-0.95c-0.78-0.25-1.21-0.72-1.4-0.98
	c-1.78,0.97-4.04,0.93-4.96,0.87l0,0C60.21,64.5,60.64,64.83,61.19,65.01z"/>
<path class="st2" d="M67.27,64.28l-0.27-0.01c-1.76,0.85-3.13,1.19-4.16,1.28c1.2,0.04,2.41-0.33,3.35-0.74
	C66.53,64.67,66.89,64.49,67.27,64.28z"/>
<path class="st2" d="M72.68,64.57l-0.11-0.18c-0.98,0.66-1.82,0.84-2.48,0.82l0.1,0.09c0.15,0.04,0.3,0.06,0.45,0.07
	c0.27,0.01,0.54-0.03,0.78-0.1C71.75,65.14,72.16,64.92,72.68,64.57z"/>
<path class="st2" d="M69.3,65.39c-0.76-0.51-1.06-0.88-1.18-1.08l-0.04,0c-2.52,1.51-4.2,1.74-5.08,1.72
	c0.31,0.24,0.63,0.43,0.98,0.56C65.09,66.96,66.85,66.99,69.3,65.39z"/>
<path class="st2" d="M47.19,69.06c1.28,0.02,2.59-0.08,3.88-0.26c3.16-0.5,6.28-1.45,8.41-2.19c0.74-0.27,1.45-0.55,2.11-0.82
	c-1.37-0.48-1.85-1.05-2.01-1.37c-8.11,2.97-16.56,2.86-18.73,2.77c0.57,0.55,1.27,0.97,2.05,1.27
	C43.6,68.68,45.03,69.03,47.19,69.06z"/>
<path class="st2" d="M72.78,65.01c-0.86,0.57-1.48,0.79-1.92,0.85l0.1,0.04l-0.01,0c0.55,0.19,1.25,0.13,1.71,0.06
	c0.02,0,0.03-0.01,0.05-0.01C72.73,65.65,72.75,65.34,72.78,65.01z"/>
<path class="st2" d="M65.13,67.38l-0.01-0.05l0.34,0.08l0.16,0.02l0,0.01c0.87,0.04,1.74-0.17,2.5-0.45
	c0.59-0.23,1.27-0.56,2.04-1.04c-0.07-0.07-0.12-0.15-0.16-0.21c-0.12-0.02-0.23-0.06-0.31-0.1c-1.43,0.97-3.52,1.96-5.55,1.43
	c-0.03-0.01-0.05-0.01-0.08-0.02c0.31,0.15,0.64,0.26,0.99,0.33L65.13,67.38z"/>
<path class="st2" d="M45.25,69.52c0.04,0.01,2.14,0.45,5.84,0.01c3.98-0.57,8.06-1.96,10.2-2.76c0.41-0.17,0.83-0.35,1.25-0.53
	l-0.15-0.22l-0.21-0.03c-3.8,1.61-9.38,3.5-14.7,3.5c-0.11,0-0.23,0-0.34,0c-1.34-0.02-2.39-0.16-3.18-0.32
	c0.22,0.08,0.44,0.16,0.67,0.22L45.25,69.52z"/>
<path class="st2" d="M51.49,72.14c2.71,0.03,5.5-0.76,8.03-1.86c0.04-0.02,0.08-0.03,0.12-0.05c0.07-0.03,0.13-0.06,0.2-0.09
	c0.12-0.05,0.23-0.1,0.34-0.15c0.03-0.01,0.06-0.03,0.09-0.04c0.07-0.03,0.15-0.07,0.22-0.1c0.1-0.05,0.2-0.09,0.29-0.14
	c0.03-0.01,0.05-0.03,0.08-0.04c1.3-0.63,2.5-1.32,3.56-1.99c-0.92-0.26-1.49-0.8-1.72-1.05c-5.58,2.47-10.03,3.25-12.79,3.46
	c-1.99,0.15-3.39,0.05-4.14-0.04c0.65,0.63,1.38,1.12,2.19,1.48C48.7,71.79,49.87,72.11,51.49,72.14z"/>
<path class="st2" d="M65.23,67.81l-0.2-0.02c-3.42,2.2-8.48,4.77-13.35,4.77c-0.08,0-0.15,0-0.23,0c-0.19,0-0.37-0.01-0.54-0.02
	c2.8,0.4,5.71-0.36,7.97-1.26c1.72-0.68,3.25-1.5,4.39-2.18c0.44-0.27,0.89-0.55,1.36-0.86c0.29-0.19,0.5-0.34,0.61-0.42
	L65.23,67.81z"/>
<path class="st2" d="M70.39,67.74c0.52-0.33,1.1-0.76,1.74-1.28c-0.93,0.07-1.41-0.1-1.62-0.23c-2.41,1.56-4.08,1.69-4.78,1.65
	c0.07,0.18,0.16,0.33,0.26,0.46l0.52,0.42c0.07,0.03,0.14,0.06,0.22,0.09C67.56,69.08,68.82,68.7,70.39,67.74z"/>
<path class="st2" d="M72.69,66.54c-1.9,1.6-3.52,2.53-4.81,2.77c-0.1,0.02-0.2,0.03-0.29,0.04c0.21,0.02,0.43,0.01,0.67-0.02
	c0.03-0.01,0.07-0.02,0.12-0.02c0.11-0.02,0.23-0.04,0.34-0.07l0.04-0.04l0,0.03c0.03-0.01,0.05-0.02,0.08-0.02
	c0.21-0.06,0.47-0.15,0.79-0.28c1.22-0.51,2.45-1.33,3.05-1.76C72.67,66.97,72.68,66.76,72.69,66.54z"/>
<path class="st2" d="M68.68,69.69l0,0.03l0.05,0.08l-0.03,0.03c0.26,0.6,0.61,0.96,1.06,1.07c0.51,0.12,1.09-0.08,1.61-0.36
	c0.41-0.23,0.84-0.55,1.3-0.96c-0.01-0.4-0.03-1.04-0.01-1.87C70.73,69.08,69.27,69.54,68.68,69.69z"/>
<path class="st2" d="M70.77,71.26c-0.14,0.04-0.29,0.07-0.42,0.09h0.3c0.02,0,0.03-0.01,0.05-0.01L70.77,71.26z"/>
<path class="st2" d="M71.01,71.26c0.32-0.13,0.92-0.45,1.69-1.14c0,0,0,0,0-0.01c-0.61,0.52-1.18,0.88-1.7,1.07l0,0.08
	C71,71.26,71,71.26,71.01,71.26z"/>
<path class="st2" d="M55.25,75.43c0.73,0.06,1.47,0.01,2.22-0.13c3.49-0.72,7.15-3.29,9.81-5.53c-0.72-0.19-0.97-0.44-1.06-0.6
	c-0.47-0.26-0.76-0.64-0.9-0.89c-7.84,5.32-12.82,5.07-14.49,4.77C52.03,74.48,53.51,75.27,55.25,75.43z"/>
<path class="st2" d="M63.14,73.59c1.44-0.88,3.09-2.09,4.92-3.75c-0.07,0.01-0.14,0.01-0.23,0.02c-4.27,3.66-8.06,5.68-11.27,6.01
	C58.78,75.84,61.13,74.81,63.14,73.59z"/>
<path class="st2" d="M58.73,77.62l0.02-0.02c0,0,0.03,0.02,0.09,0.06c0.33,0.1,0.67,0.16,1.03,0.17c0.05,0,0.1,0,0.15,0
	c2.09,0,4.41-1.43,6.27-2.94c1.02-0.85,2.16-1.92,3.41-3.27c-0.95-0.48-1.28-1.05-1.4-1.43c-5.99,5.42-10.06,6.11-11.38,6.17
	C57.45,76.97,58.05,77.39,58.73,77.62z"/>
<path class="st2" d="M61.19,78.27L61.19,78.27l0.01,0c0.9-0.15,1.88-0.58,2.86-1.17c1.41-0.91,3.44-2.5,6.21-5.33h-0.13
	c-4.55,4.94-7.61,6.32-9.45,6.56c0,0,0.01,0,0.01,0C60.87,78.32,61.03,78.3,61.19,78.27z"/>
<path class="st2" d="M73.25,71.12C73,71,72.87,70.79,72.79,70.6c-0.83,0.71-1.45,0.99-1.76,1.11c0.2,0.68,0.48,1.14,0.82,1.39
	l0.01-0.01c0.01,0,0.01,0.01,0.02,0.01c0.09,0.05,0.53,0.26,1.22,0.1c1.07-0.4,2.27-1.7,2.91-2.52l-1.03,0
	C74.25,71.17,73.67,71.32,73.25,71.12z"/>
<path class="st2" d="M74.61,73.42c-0.02,0.01-0.04,0.02-0.06,0.03c0.17,0.15,0.33,0.26,0.5,0.34L74.61,73.42z"/>
<path class="st2" d="M76.94,70.71c-0.99,1.72-1.77,2.41-2.26,2.68l1.15,0.57c0.05,0,0.09-0.01,0.14-0.02
	c1.12-0.22,2.03-1.8,2.49-2.76c0.07-0.15,0.14-0.3,0.21-0.47H76.94z"/>
<path class="st2" d="M79.46,75.36l0.97-2.91l-1.04-1.41c-0.71,1.81-1.66,2.82-1.99,3.13c0.21,0.5,0.48,0.85,0.8,1.07
	C78.54,75.38,78.96,75.42,79.46,75.36z"/>
<path class="st2" d="M82.56,76.08c0.04,0.04,0.09,0.07,0.14,0.1l0.21,0.03l-0.03,0.03c0.11,0.02,0.23,0.03,0.36,0.02l-1-1.37
	C82.22,75.32,82.28,75.82,82.56,76.08z"/>
<path class="st2" d="M81.45,76.74c0.1,0,0.2-0.01,0.3-0.04l0.02-0.96l0.29,0.79c0.04-0.03,0.08-0.07,0.12-0.11
	c-0.05-0.04-0.1-0.1-0.15-0.17c-0.27-0.38-0.33-1.01-0.18-1.87l-1.11-1.52l-0.89,2.66C80.05,75.8,80.73,76.71,81.45,76.74z"/>
<path class="st2" d="M84.57,78.21c-0.15,0.88-0.3,2.55,0.13,4.64c0.29,0.54,0.73,0.99,1.4,1.27c0.82,0.17,2.21,0.29,2.54-0.09
	c0.03-0.03,0.1-0.13,0.04-0.36l-4.09-5.56C84.59,78.14,84.58,78.17,84.57,78.21z"/>
<polygon class="st2" points="84.91,73.2 84.94,70.8 84.2,70.79 83.29,70.78 "/>
<path class="st2" d="M86.69,75.87c0.2,0.15,0.38,0.22,0.51,0.18c0.01,0,0.02-0.01,0.03-0.01c0.16-0.2,0.38-0.7,0.47-2.01v-3.07
	l-0.25-0.14l-2.1-0.03l-0.04,3.02L86.69,75.87z"/>
<path class="st2" d="M89.08,71.77l-0.94-0.55c0.17,4.45-0.45,5.18-0.93,5.34c-0.02,0.01-0.03,0.01-0.05,0.01l1.88,2.8L89.08,71.77z"
	/>
<path class="st2" d="M63.25,81.03c0.15,0.08,0.31,0.13,0.48,0.16c1.37,0.25,3.37-0.98,5.78-3.55c1.07-1.14,2-2.31,2.6-3.11
	c0.16-0.22,0.33-0.45,0.5-0.68c-1.42-0.23-1.85-1.23-1.98-1.84c-5.44,5.55-8.09,6.49-8.89,6.65c0.28,1.02,0.68,1.73,1.19,2.14
	l0.03-0.03C62.96,80.8,63.05,80.92,63.25,81.03z"/>
<path class="st2" d="M64.85,81.58c0.35-0.06,0.72-0.19,1.13-0.39l-0.02-0.03C65.55,81.37,65.18,81.5,64.85,81.58z"/>
<path class="st2" d="M70.28,77.53c0.95-1.06,1.79-2.12,2.38-2.9c0.19-0.25,0.38-0.51,0.57-0.78l-0.13,0.02
	c-3.06,4.27-5.33,6.3-6.96,7.19l0.08-0.02c0,0,0.02,0,0.05-0.02C67.42,80.39,68.78,79.21,70.28,77.53z"/>
<path class="st2" d="M68.65,82.59c1.39-0.06,3.13-1.5,5.06-4.17c1.15-1.6,2.05-3.2,2.39-3.83c-1.41-0.14-1.9-0.63-2.08-0.95
	l-0.17,0.08c-4.18,5.86-6.5,7.3-7.26,7.64C67.18,82.21,67.88,82.62,68.65,82.59z"/>
<path class="st2" d="M71.88,81.44c-0.54,0.5-1.04,0.85-1.49,1.09l0.07,0C70.93,82.27,71.41,81.89,71.88,81.44z"/>
<path class="st2" d="M70.18,82.67l-0.02-0.03c-0.22,0.11-0.43,0.19-0.62,0.25c0.01,0,0.01,0,0.02,0
	C69.76,82.84,69.97,82.77,70.18,82.67z"/>
<path class="st2" d="M76.67,74.54l-0.09,0.04c-0.2,0.4-0.39,0.77-0.59,1.14C76.21,75.34,76.44,74.95,76.67,74.54z"/>
<path class="st2" d="M71.92,83.99l0.51,0.24c0.25,0.08,0.5,0.11,0.76,0.08c0.94-0.09,1.99-0.88,3.09-2.31l0.06-0.12l0.02-0.02
	c0,0,0.05-0.05,0.14-0.16c0.37-0.5,0.74-1.07,1.11-1.71c0.72-1.23,1.3-2.46,1.65-3.26c0.11-0.25,0.22-0.52,0.33-0.79l-0.09-0.17
	c-0.82,0.09-1.46-0.05-1.92-0.43c-0.26-0.21-0.41-0.46-0.5-0.68c-3.63,6.44-5.53,7.88-6.27,8.2C71.17,83.37,71.54,83.75,71.92,83.99
	z"/>
<path class="st2" d="M78.74,85.08c0.96-0.34,1.72-1.83,2.21-4.31c0.23-1.17,0.35-2.31,0.41-3.02c0.01-0.16,0.02-0.32,0.03-0.48
	c-0.01,0-0.02,0-0.03,0c-0.58,0-1.16-0.56-1.47-0.92c-1.73,4.14-3.01,5.59-3.2,5.8l-0.81,1.5C76.99,84.88,77.96,85.36,78.74,85.08z"
	/>
<path class="st2" d="M79.29,85.37c0.01,0,0.02-0.01,0.03-0.01c0.38-0.19,0.72-0.59,1.03-1.17C80.04,84.72,79.69,85.12,79.29,85.37z"
	/>
<path class="st2" d="M83.13,84.35c0.51-0.15,0.91-0.56,1.2-1.2c-0.62-2.78-0.24-4.84-0.08-5.51l-0.72-0.98
	c-0.42,0.13-0.72,0.08-0.91,0c-0.15,0.32-0.29,0.49-0.45,0.52c-0.11,3.68-0.92,5.99-1.17,6.62c0.64,0.39,1.21,0.59,1.7,0.61
	C82.84,84.41,82.99,84.39,83.13,84.35z"/>
<path class="st2" d="M84.61,83.54c-0.26,0.49-0.58,0.84-0.97,1.05c0.54-0.25,0.91-0.71,1.07-0.94L84.61,83.54z"/>
<path class="st2" d="M96.86,79.29l-4.88,4.79l-0.18,0.18l-0.14-0.21L82.4,70.22c-1.02,0.07-2.02,0.14-2.94,0.19L90.8,85.84l0,0.06
	l0.48,7.94l1.84,1.8l0.05-8.95l6.15-5.84C98.34,80.6,97.25,79.66,96.86,79.29z"/>
<path class="st2" d="M90.83,69.35c-0.37,0.07-0.81,0.14-1.31,0.21l0,0.63l0.05,1.88l-0.06-0.04l-0.05,7.87l2.41,3.71l0.69-0.69
	l-0.17-13.4C91.92,69.29,91.4,69.23,90.83,69.35z"/>
<path class="st2" d="M94.75,74.84c0-0.04-0.18-3.7-1.91-5.05c-0.01-0.01-0.02-0.02-0.04-0.02l0.17,12.72l2.99-3.01l-0.04-1.56
	c-0.51-0.86-0.9-1.87-1.17-3.04L94.75,74.84z"/>
<path class="st2" d="M78.69,48.62c-1.91,2.51-3.37,5.65-4.33,9.32c-1.64,6.27-1.25,12.01-1.25,12.06c0.03,0.35,0.13,0.57,0.31,0.66
	c0.39,0.19,1.14-0.23,1.37-0.39l0.05-0.03l0.06,0c0.06,0,3.55-0.17,7.35-0.43l-0.04-0.08l2.54-0.12l2.23-0.21l2.5-0.31l0,0.06
	c0.48-0.07,0.9-0.13,1.26-0.2c0.9-0.18,1.69,0,2.36,0.52c1.83,1.44,2.05,5.01,2.07,5.35c0.63,2.77,1.99,4.63,4.05,5.51
	c5.01,2.16,12.68-2.03,13.64-2.57l0.28-7.75c0.05-7.46-0.54-11.87-1.03-14.26c-0.54-2.59-1.1-3.43-1.11-3.43l-0.02-0.03l-0.01-0.03
	c-1.01-3.22-4.45-6.23-4.49-6.26c-3.97-3.73-8.8-4.56-12.15-4.6c-3.65-0.05-6.39,0.8-6.42,0.81C84.17,43.32,81.07,45.49,78.69,48.62
	z M93.13,42.71c6.86,0,12.45,5.61,12.45,12.49c0,6.89-5.58,12.49-12.45,12.49S80.68,62.1,80.68,55.21
	C80.68,48.32,86.26,42.71,93.13,42.71z"/>
<path class="st2" d="M93.13,67.28c6.63,0,12.03-5.42,12.03-12.07c0-6.66-5.4-12.07-12.03-12.07S81.1,48.55,81.1,55.21
	C81.1,61.86,86.5,67.28,93.13,67.28z M88.42,62.04c-1.01,0.23-0.91,2.28-0.9,2.3l0.03,0.5l-0.38-0.32c-0.7-0.58-1.05-1.25-1.05-1.98
	c-0.01-1.18,0.91-2.15,1.21-2.44c0,0,0,0,0,0c-0.3-0.61-0.34-1.18-0.13-1.69c0.4-0.96,1.54-1.37,1.59-1.39L88.8,57
	c0.02-0.01,2.08-0.49,2.92,1.42c0.81,1.84-0.4,2.87-0.41,2.88C90.05,62.36,88.71,62.11,88.42,62.04z M95.13,65.6l-0.01,0.01
	c-0.01,0.01-0.76,0.65-1.74,0.65c-0.47,0-0.99-0.14-1.51-0.56c-1.57-1.26-0.98-2.73-0.97-2.75c0.64-1.51,1.94-1.91,2.23-1.98
	c0.8-0.68-0.25-2.44-0.26-2.45L92.6,58.1l0.48,0.11c0.89,0.2,1.51,0.62,1.85,1.27c0.55,1.05,0.19,2.33,0.06,2.72c0,0,0,0,0,0
	c0.55,0.4,0.85,0.88,0.9,1.44C95.99,64.67,95.16,65.57,95.13,65.6z M101.23,63.39l-0.31,0.39l-0.07-0.49c0-0.02-0.3-2.04-1.35-2.06
	c-0.27,0.13-1.53,0.64-2.98-0.13c-0.01-0.01-1.41-0.78-0.99-2.73c0.43-2.04,2.55-1.98,2.57-1.98l0.02,0
	c0.05,0.01,1.26,0.18,1.84,1.04c0.31,0.46,0.38,1.02,0.21,1.67c0,0,0,0,0,0c0.35,0.22,1.45,0.98,1.68,2.14
	C102,61.96,101.79,62.68,101.23,63.39z M102.82,52.54l0.02,0.01c0.02,0.01,1.62,1.4,0.57,3.2c-0.71,1.22-1.68,1.4-2.21,1.4
	c-0.22,0-0.36-0.03-0.37-0.03c-1.59-0.4-2.18-1.64-2.29-1.91c-0.79-0.69-2.37,0.61-2.39,0.62l-0.38,0.32l0.03-0.49
	c0.06-0.91,0.39-1.59,0.98-2.02c0.95-0.7,2.27-0.53,2.68-0.46c0,0,0,0,0,0c0.31-0.6,0.75-0.97,1.29-1.1
	C101.77,51.83,102.78,52.51,102.82,52.54z M96.26,48.19c0.07-0.41,0.37-1.71,1.36-2.36c0.61-0.4,1.36-0.47,2.23-0.22l0.47,0.14
	l-0.43,0.25c-0.02,0.01-1.78,1.04-1.4,2.03c0.22,0.2,1.17,1.18,1,2.81c0,0.02-0.19,1.6-2.16,1.94c-0.17,0.03-0.33,0.04-0.49,0.04
	c-1.68,0-2.31-1.67-2.31-1.69l-0.01-0.02c-0.01-0.05-0.31-1.23,0.27-2.1C95.1,48.55,95.59,48.27,96.26,48.19
	C96.26,48.19,96.26,48.19,96.26,48.19z M90.33,45.45l0.01-0.02c0.01-0.02,1.2-1.77,3.11-0.94c1.84,0.8,1.66,2.38,1.65,2.4
	c-0.22,1.63-1.37,2.35-1.63,2.5c-0.59,0.86,0.88,2.29,0.89,2.3l0.36,0.34l-0.5,0.02c-0.07,0-0.13,0-0.2,0
	c-0.81,0-1.46-0.25-1.92-0.75c-0.81-0.86-0.79-2.2-0.77-2.61c0,0,0,0,0,0c-0.63-0.24-1.05-0.63-1.24-1.15
	C89.74,46.57,90.31,45.49,90.33,45.45z M84.75,47.64c0.78-0.46,1.53-0.57,2.22-0.33c1.12,0.39,1.73,1.57,1.9,1.95c0,0,0,0,0,0
	c0.67-0.08,1.22,0.07,1.64,0.44c0.78,0.69,0.78,1.91,0.78,1.96l0,0.02c0,0.02-0.23,2.13-2.32,2.28c-0.09,0.01-0.19,0.01-0.27,0.01
	c-1.78,0-2.3-1.35-2.31-1.36c-0.57-1.54,0.12-2.72,0.28-2.97c0.12-1.05-1.84-1.61-1.86-1.62l-0.48-0.13L84.75,47.64z M84.87,53.07
	c1.59,0.41,2.17,1.65,2.28,1.92c0.79,0.7,2.38-0.59,2.39-0.61l0.38-0.32l-0.04,0.49c-0.07,0.91-0.4,1.58-1,2.01
	c-0.96,0.69-2.28,0.52-2.69,0.44c0,0,0,0,0,0c-0.32,0.6-0.75,0.96-1.3,1.09c-0.15,0.04-0.3,0.05-0.45,0.05
	c-0.84,0-1.57-0.51-1.61-0.53l-0.02-0.01c-0.02-0.01-1.61-1.41-0.55-3.2C83.31,52.69,84.86,53.06,84.87,53.07z"/>
<line class="st3" x1="92.77" y1="82.93" x2="92.77" y2="82.93"/>
<polygon class="st2" points="89.08,69.55 87.03,69.81 84.79,70.02 82.91,70.11 83.04,70.35 87.57,70.41 89.13,71.31 "/>
<path class="st2" d="M94.92,50.99c0.06,0.15,0.68,1.65,2.32,1.36c1.66-0.29,1.82-1.56,1.82-1.57c0.16-1.58-0.88-2.47-0.89-2.48
	l-0.04-0.03l-0.02-0.05c-0.43-0.98,0.54-1.88,1.14-2.32c-0.54-0.08-1.01,0.01-1.4,0.27c-0.79,0.52-1.08,1.59-1.16,2.01
	c0.31,0.03,0.72,0.15,0.95,0.49c0.31,0.46,0.21,1.17-0.31,2.12l-0.37-0.2c0.43-0.78,0.54-1.36,0.33-1.68
	c-0.26-0.39-0.98-0.31-0.98-0.31c-0.54,0.07-0.93,0.29-1.17,0.64C94.68,49.91,94.89,50.89,94.92,50.99z"/>
<path class="st2" d="M90.7,45.66c-0.05,0.1-0.48,0.99-0.2,1.75c0.15,0.4,0.49,0.71,1,0.9c0,0,0.68,0.25,1.03-0.07
	c0.28-0.26,0.3-0.85,0.07-1.71l0.41-0.11c0.28,1.04,0.22,1.76-0.19,2.13c-0.31,0.28-0.73,0.3-1.04,0.25
	c-0.02,0.43,0.01,1.53,0.66,2.23c0.32,0.34,0.76,0.54,1.31,0.6c-0.48-0.57-1.22-1.68-0.57-2.53l0.03-0.04l0.04-0.02
	c0.05-0.02,1.24-0.64,1.45-2.2c0.01-0.05,0.13-1.28-1.41-1.96C91.74,44.21,90.79,45.52,90.7,45.66z"/>
<path class="st2" d="M99.8,54.4c0.22,0.31,0.81,0.4,1.69,0.27l0.06,0.42c-1.07,0.16-1.77,0.01-2.1-0.44
	c-0.24-0.34-0.21-0.76-0.13-1.07c-0.42-0.07-1.52-0.17-2.29,0.4c-0.38,0.28-0.63,0.69-0.74,1.23c0.41-0.27,1.06-0.62,1.68-0.62
	c0.32,0,0.63,0.1,0.9,0.35l0.04,0.03l0.02,0.05c0.02,0.05,0.49,1.3,2.02,1.69c0.05,0.01,1.26,0.28,2.11-1.17
	c0.85-1.46-0.35-2.55-0.47-2.66c-0.09-0.06-0.93-0.59-1.71-0.4c-0.42,0.1-0.76,0.4-1.01,0.89C99.84,53.37,99.52,54.02,99.8,54.4z"/>
<path class="st2" d="M100.01,59.5c-0.15,0.28-0.4,0.61-0.81,0.7c-0.54,0.12-1.17-0.25-1.85-1.08l0.33-0.27
	c0.57,0.69,1.06,1.01,1.43,0.94c0.45-0.1,0.65-0.79,0.66-0.79c0.14-0.52,0.08-0.97-0.15-1.33c-0.45-0.67-1.43-0.84-1.54-0.86
	c-0.16,0-1.78,0.01-2.13,1.64c-0.35,1.65,0.76,2.27,0.77,2.27c1.39,0.74,2.58,0.13,2.63,0.11l0.04-0.02l0.05,0c0.01,0,0.03,0,0.04,0
	c1.04,0,1.5,1.22,1.68,1.93c0.28-0.47,0.37-0.94,0.28-1.4C101.26,60.4,100.37,59.73,100.01,59.5z"/>
<path class="st2" d="M95.47,63.67c-0.04-0.43-0.28-0.81-0.73-1.13c0,0-0.6-0.42-1.01-0.2c-0.34,0.17-0.52,0.74-0.52,1.63l-0.42,0
	c0-1.08,0.25-1.75,0.75-2.01c0.37-0.19,0.78-0.09,1.07,0.03c0.13-0.41,0.39-1.48-0.05-2.32c-0.22-0.42-0.59-0.72-1.11-0.92
	c0.31,0.68,0.73,1.94-0.11,2.59l-0.04,0.03l-0.05,0.01c-0.05,0.01-1.36,0.29-1.97,1.74c-0.02,0.05-0.47,1.2,0.84,2.26
	c1.31,1.05,2.57,0.03,2.7-0.07C94.9,65.23,95.55,64.48,95.47,63.67z"/>
<path class="st2" d="M91.34,58.59c-0.67-1.54-2.27-1.22-2.42-1.19c-0.1,0.04-1.02,0.4-1.33,1.15c-0.16,0.4-0.12,0.85,0.12,1.34
	c0,0,0.33,0.64,0.81,0.65c0,0,0,0,0,0c0.38,0,0.8-0.42,1.21-1.21l0.37,0.2c-0.5,0.95-1.03,1.43-1.58,1.43c0,0,0,0-0.01,0
	c-0.42,0-0.74-0.28-0.94-0.52c-0.3,0.3-1.03,1.13-1.03,2.08c0,0.47,0.19,0.92,0.56,1.33c0.03-0.75,0.25-2.06,1.3-2.24l0.05-0.01
	l0.05,0.01c0.05,0.02,1.34,0.37,2.55-0.63C91.08,60.95,92.01,60.13,91.34,58.59z"/>
<path class="st2" d="M82.65,54.63c-0.85,1.44,0.33,2.55,0.45,2.66c0.09,0.06,0.92,0.6,1.71,0.41c0.42-0.1,0.76-0.4,1.02-0.88
	c0,0,0.33-0.65,0.06-1.03c-0.22-0.31-0.8-0.41-1.69-0.28l-0.06-0.42c1.07-0.15,1.77,0,2.09,0.45c0.24,0.34,0.2,0.76,0.12,1.07
	c0.42,0.07,1.52,0.18,2.29-0.38c0.38-0.28,0.63-0.69,0.75-1.23c-0.63,0.41-1.81,1-2.58,0.25l-0.04-0.03l-0.02-0.05
	c-0.02-0.05-0.48-1.31-2-1.71C84.72,53.47,83.51,53.19,82.65,54.63z"/>
<path class="st2" d="M87.08,49.75l-0.01,0.05l-0.03,0.04c-0.03,0.05-0.8,1.14-0.26,2.62c0.02,0.05,0.48,1.2,2.15,1.08
	c1.67-0.12,1.91-1.73,1.93-1.89c0-0.11-0.04-1.1-0.64-1.64c-0.32-0.29-0.76-0.4-1.3-0.33c0,0-0.72,0.1-0.88,0.54
	c-0.13,0.36,0.13,0.89,0.73,1.54l-0.31,0.29c-0.73-0.79-1.01-1.45-0.82-1.98c0.14-0.39,0.51-0.6,0.81-0.71
	c-0.18-0.39-0.72-1.35-1.62-1.66c-0.44-0.15-0.93-0.13-1.44,0.08C86.09,48.06,87.26,48.7,87.08,49.75z"/>
</svg>
